<svg width="79" height="79" viewBox="0 0 79 79" fill="none" xmlns="http://www.w3.org/2000/svg">
<path d="M2.5 2.5L2.5 72" stroke="white" stroke-width="4" stroke-linecap="round" stroke-linejoin="round" stroke-dasharray="4 8"/>
<path d="M11.5414 67.3636L11.5414 78L77.7519 78L77.7519 44L11.5413 44L11.5414 54.2727L5 60.8182L11.5414 67.3636Z" fill="white" stroke="#333333"/>
<path d="M26.9789 55.3333C26.9789 55.7754 26.8038 56.1993 26.4923 56.5118C26.1807 56.8244 25.7582 57 25.3176 57C24.877 57 24.4544 56.8244 24.1429 56.5118C23.8313 56.1993 23.6563 55.7754 23.6563 55.3333C23.6563 54.8913 23.8313 54.4674 24.1429 54.1548C24.4544 53.8423 24.877 53.6667 25.3176 53.6667C25.7582 53.6667 26.1807 53.8423 26.4923 54.1548C26.8038 54.4674 26.9789 54.8913 26.9789 55.3333ZM24.6709 63.8321L26.8277 65.9671C26.9104 66.049 26.9751 66.1473 27.0175 66.2558L28.1675 69.1954C28.2481 69.4012 28.2438 69.6306 28.1557 69.8332C28.0676 70.0358 27.9029 70.1951 27.6978 70.2758C27.4927 70.3566 27.264 70.3524 27.0621 70.264C26.8601 70.1756 26.7014 70.0104 26.6209 69.8046L25.5352 67.0292L21.8272 63.3583C21.7376 63.2697 21.6692 63.1618 21.6273 63.0428C21.5854 62.9237 21.5709 62.7967 21.5851 62.6713L21.882 60.0379C21.166 60.7521 20.6136 61.7558 20.1904 63.0863C20.1588 63.1923 20.1064 63.291 20.0363 63.3765C19.9662 63.462 19.8799 63.5327 19.7823 63.5843C19.6847 63.636 19.5778 63.6676 19.4679 63.6774C19.358 63.6871 19.2472 63.6748 19.1421 63.6412C19.037 63.6075 18.9396 63.5532 18.8556 63.4813C18.7717 63.4095 18.7028 63.3216 18.6531 63.2228C18.6034 63.1239 18.5738 63.0162 18.566 62.9057C18.5583 62.7953 18.5726 62.6844 18.608 62.5796C19.3847 60.1379 20.6743 58.3104 22.8381 57.4725L22.8477 57.4688C23.3988 57.2633 23.9719 57.28 24.4828 57.5446C24.9733 57.7992 25.3226 58.2388 25.5514 58.7313L25.8205 59.3146C26.0232 59.7554 26.1935 60.1271 26.3576 60.4529C26.5872 60.9113 26.772 61.2154 26.9548 61.4288C27.1242 61.6263 27.2924 61.7479 27.5072 61.8321C27.7381 61.9225 28.0616 61.985 28.5613 62C28.671 62.0022 28.7793 62.0262 28.8797 62.0706C28.9802 62.1151 29.0708 62.179 29.1465 62.2588C29.2222 62.3386 29.2813 62.4327 29.3205 62.5356C29.3597 62.6384 29.3782 62.7481 29.3749 62.8582C29.3716 62.9683 29.3466 63.0766 29.3013 63.1769C29.256 63.2773 29.1914 63.3676 29.1111 63.4427C29.0308 63.5178 28.9364 63.5762 28.8335 63.6145C28.7306 63.6528 28.6211 63.6702 28.5114 63.6658C27.9113 63.6479 27.3784 63.5708 26.9029 63.3846C26.4115 63.1921 26.024 62.8992 25.6943 62.5138C25.4866 62.2713 25.3039 61.9942 25.1336 61.6929L24.6709 63.8321Z" fill="black"/>
<path d="M21.5851 64.5917L22.9619 65.9167L22.3281 68.0613C22.2791 68.2272 22.1798 68.3737 22.044 68.4804L19.9117 70.1567C19.8258 70.2242 19.7275 70.274 19.6224 70.3034C19.5173 70.3328 19.4075 70.3411 19.2991 70.3279C19.1908 70.3147 19.0862 70.2802 18.9911 70.2264C18.8961 70.1726 18.8126 70.1006 18.7453 70.0144C18.678 69.9282 18.6283 69.8296 18.599 69.7241C18.5698 69.6187 18.5615 69.5085 18.5746 69.3998C18.5878 69.2911 18.6222 69.1861 18.6758 69.0908C18.7294 68.9955 18.8012 68.9117 18.8871 68.8442L20.8109 67.3325L21.3903 65.37L21.5851 64.5917Z" fill="black"/>
<path d="M38.5143 58.474H34.5943V57.004L36.8763 50.76H39.0043L36.5263 56.794H38.5143V54.204H40.4463V56.794H41.3283V58.474H40.4463V60H38.5143V58.474ZM46.3724 53H48.2344V53.392C48.5798 53.196 48.8784 53.056 49.1304 52.972C49.3918 52.8787 49.6624 52.832 49.9424 52.832C50.2691 52.832 50.5818 52.888 50.8804 53C51.1884 53.1027 51.4404 53.266 51.6364 53.49C52.0751 53.266 52.4858 53.1027 52.8684 53C53.2604 52.888 53.6571 52.832 54.0584 52.832C54.9264 52.832 55.5424 53.098 55.9064 53.63C56.2704 54.162 56.4524 55.0207 56.4524 56.206V60H54.5764V56.262C54.5764 55.6367 54.5064 55.1887 54.3664 54.918C54.2264 54.6473 53.9651 54.512 53.5824 54.512C53.3118 54.512 52.9524 54.5773 52.5044 54.708L52.2944 54.778C52.3318 55.4033 52.3504 55.9353 52.3504 56.374V60H50.4744V56.402C50.4744 55.898 50.4464 55.5153 50.3904 55.254C50.3438 54.9927 50.2458 54.806 50.0964 54.694C49.9564 54.5727 49.7418 54.512 49.4524 54.512C49.1538 54.512 48.8084 54.5773 48.4164 54.708L48.2484 54.764V60H46.3724V53ZM58.3966 53H60.2726V60H58.3966V53ZM58.3966 50.214H60.2726V52.104H58.3966V50.214ZM62.2859 53H64.1479V53.392C64.5026 53.1867 64.8153 53.042 65.0859 52.958C65.3659 52.874 65.6646 52.832 65.9819 52.832C66.8406 52.832 67.4519 53.1073 67.8159 53.658C68.1799 54.2087 68.3619 55.058 68.3619 56.206V60H66.4859V56.262C66.4859 55.618 66.4066 55.1653 66.2479 54.904C66.0986 54.6427 65.8093 54.512 65.3799 54.512C65.0719 54.512 64.7219 54.5773 64.3299 54.708L64.1619 54.764V60H62.2859V53Z" fill="#007D17"/>
<path d="M39.6494 72V65.34L37.6694 66.612L37.1894 65.76L39.7454 64.08H40.7894V72H39.6494ZM46.3886 72.12C45.3806 72.12 44.6486 71.76 44.1926 71.04C43.7366 70.312 43.5086 69.304 43.5086 68.016C43.5086 67.288 43.5806 66.668 43.7246 66.156C43.8686 65.636 44.0766 65.216 44.3486 64.896C44.6286 64.568 44.9606 64.332 45.3446 64.188C45.7366 64.036 46.1686 63.96 46.6406 63.96C46.8886 63.96 47.1486 63.972 47.4206 63.996C47.7006 64.02 47.9686 64.052 48.2246 64.092C48.4806 64.124 48.6966 64.156 48.8726 64.188L48.7646 65.088C48.6126 65.072 48.4166 65.056 48.1766 65.04C47.9366 65.016 47.6846 64.996 47.4206 64.98C47.1566 64.964 46.9006 64.956 46.6526 64.956C46.0126 64.956 45.5246 65.172 45.1886 65.604C44.8526 66.028 44.6766 66.64 44.6606 67.44C44.7406 67.424 44.8446 67.392 44.9726 67.344C45.1086 67.296 45.2646 67.248 45.4406 67.2C45.6246 67.144 45.8086 67.1 45.9926 67.068C46.1766 67.028 46.3566 67.008 46.5326 67.008C47.4046 67.008 48.0646 67.212 48.5126 67.62C48.9606 68.02 49.1846 68.648 49.1846 69.504C49.1846 70.064 49.0726 70.544 48.8486 70.944C48.6326 71.336 48.3166 71.632 47.9006 71.832C47.4846 72.024 46.9806 72.12 46.3886 72.12ZM46.3886 71.136C46.9246 71.136 47.3326 70.996 47.6126 70.716C47.9006 70.428 48.0446 70.02 48.0446 69.492C48.0446 68.988 47.9006 68.612 47.6126 68.364C47.3326 68.116 46.9406 67.992 46.4366 67.992C46.2286 67.992 46.0126 68.016 45.7886 68.064C45.5646 68.112 45.3526 68.168 45.1526 68.232C44.9526 68.288 44.7846 68.348 44.6486 68.412C44.6566 68.924 44.7166 69.388 44.8286 69.804C44.9406 70.22 45.1206 70.548 45.3686 70.788C45.6246 71.02 45.9646 71.136 46.3886 71.136ZM53.2477 72.12C52.7757 72.12 52.3597 72.056 51.9997 71.928C51.6397 71.792 51.3357 71.572 51.0877 71.268C50.8397 70.964 50.6477 70.556 50.5117 70.044C50.3837 69.532 50.3197 68.9 50.3197 68.148C50.3197 67.348 50.3837 66.68 50.5117 66.144C50.6397 65.6 50.8277 65.168 51.0757 64.848C51.3317 64.528 51.6397 64.3 51.9997 64.164C52.3597 64.02 52.7717 63.948 53.2357 63.948C53.7237 63.948 54.1477 64.02 54.5077 64.164C54.8757 64.3 55.1797 64.528 55.4197 64.848C55.6677 65.168 55.8517 65.596 55.9717 66.132C56.0997 66.668 56.1637 67.34 56.1637 68.148C56.1637 69.148 56.0517 69.94 55.8277 70.524C55.6037 71.1 55.2757 71.512 54.8437 71.76C54.4117 72 53.8797 72.12 53.2477 72.12ZM53.2477 71.124C53.5357 71.124 53.7877 71.08 54.0037 70.992C54.2197 70.896 54.3997 70.74 54.5437 70.524C54.6957 70.3 54.8077 69.996 54.8797 69.612C54.9517 69.22 54.9877 68.732 54.9877 68.148C54.9877 67.508 54.9517 66.984 54.8797 66.576C54.8157 66.16 54.7117 65.836 54.5677 65.604C54.4237 65.364 54.2437 65.196 54.0277 65.1C53.8117 64.996 53.5517 64.944 53.2477 64.944C52.9597 64.944 52.7037 64.996 52.4797 65.1C52.2557 65.196 52.0717 65.36 51.9277 65.592C51.7917 65.824 51.6877 66.148 51.6157 66.564C51.5437 66.98 51.5077 67.512 51.5077 68.16C51.5077 68.744 51.5437 69.232 51.6157 69.624C51.6957 70.008 51.8077 70.308 51.9517 70.524C52.1037 70.74 52.2877 70.896 52.5037 70.992C52.7197 71.08 52.9677 71.124 53.2477 71.124ZM60.5118 72V65.988H61.6278V66.408C61.8118 66.296 62.0638 66.18 62.3838 66.06C62.7118 65.932 63.0278 65.868 63.3318 65.868C63.7238 65.868 64.0398 65.916 64.2798 66.012C64.5198 66.108 64.7158 66.264 64.8678 66.48C65.0198 66.392 65.2078 66.3 65.4318 66.204C65.6638 66.108 65.9118 66.028 66.1758 65.964C66.4398 65.9 66.6998 65.868 66.9558 65.868C67.5078 65.868 67.9318 65.964 68.2278 66.156C68.5318 66.348 68.7398 66.664 68.8518 67.104C68.9638 67.536 69.0198 68.112 69.0198 68.832V72H67.9158V68.904C67.9158 68.408 67.8878 68.012 67.8318 67.716C67.7758 67.42 67.6638 67.204 67.4958 67.068C67.3358 66.932 67.0878 66.864 66.7518 66.864C66.4558 66.864 66.1638 66.908 65.8758 66.996C65.5958 67.084 65.3758 67.172 65.2158 67.26C65.2718 67.452 65.3078 67.7 65.3238 68.004C65.3478 68.3 65.3598 68.604 65.3598 68.916V72H64.2438V68.94C64.2438 68.428 64.2158 68.024 64.1598 67.728C64.1118 67.424 64.0038 67.204 63.8358 67.068C63.6678 66.932 63.4198 66.864 63.0918 66.864C62.8118 66.864 62.5318 66.908 62.2518 66.996C61.9798 67.084 61.7718 67.172 61.6278 67.26V72H60.5118Z" fill="black"/>
</svg>
