<svg width="73" height="147" viewBox="0 0 73 147" fill="none" xmlns="http://www.w3.org/2000/svg">
<path d="M39.3632 145C39.3632 127.641 63.5 94.0698 63.5 81.5L65.5 73.5L70.5 68L70.5 2.5" stroke="white" stroke-width="4" stroke-linecap="round" stroke-linejoin="round" stroke-dasharray="4 8"/>
<path d="M61.1559 36.0748L61.1559 27L0.999992 27L0.999991 63.3408L61.1559 63.3408L61.1559 49.2388L67.7207 42.6568L61.1559 36.0748Z" fill="white" stroke="#333333"/>
<path d="M14.9889 39.2402C14.9889 39.6847 14.8132 40.111 14.5006 40.4253C14.1879 40.7396 13.7638 40.9162 13.3216 40.9162C12.8795 40.9162 12.4554 40.7396 12.1427 40.4253C11.8301 40.111 11.6544 39.6847 11.6544 39.2402C11.6544 38.7957 11.8301 38.3694 12.1427 38.0551C12.4554 37.7408 12.8795 37.5642 13.3216 37.5642C13.7638 37.5642 14.1879 37.7408 14.5006 38.0551C14.8132 38.3694 14.9889 38.7957 14.9889 39.2402ZM12.6727 47.7864L14.8372 49.9334C14.9202 50.0157 14.9851 50.1146 15.0276 50.2237L16.1818 53.1797C16.2626 53.3867 16.2583 53.6174 16.1699 53.8211C16.0815 54.0249 15.9162 54.185 15.7104 54.2662C15.5045 54.3474 15.275 54.3431 15.0724 54.2543C14.8697 54.1654 14.7104 53.9992 14.6296 53.7923L13.5401 51.0014L9.81879 47.3101C9.72887 47.2209 9.66027 47.1124 9.61818 46.9927C9.57608 46.873 9.56159 46.7453 9.5758 46.6191L9.87381 43.9711C9.15524 44.6892 8.60088 45.6986 8.17615 47.0364C8.1444 47.1431 8.09182 47.2423 8.0215 47.3283C7.95117 47.4143 7.86451 47.4853 7.76656 47.5373C7.66862 47.5892 7.56136 47.6211 7.45105 47.6309C7.34074 47.6407 7.22958 47.6283 7.12409 47.5945C7.01859 47.5606 6.92085 47.506 6.83659 47.4337C6.75234 47.3615 6.68324 47.2731 6.63334 47.1737C6.58345 47.0743 6.55375 46.966 6.54598 46.8549C6.53822 46.7439 6.55254 46.6324 6.58812 46.5269C7.36755 44.0716 8.66174 42.2339 10.8333 41.3913L10.8429 41.3876C11.396 41.181 11.9712 41.1978 12.4839 41.4638C12.9761 41.7198 13.3267 42.1619 13.5563 42.6571L13.8264 43.2437C14.0298 43.687 14.2007 44.0607 14.3653 44.3884C14.5958 44.8493 14.7813 45.1552 14.9647 45.3697C15.1348 45.5683 15.3036 45.6906 15.5191 45.7753C15.7508 45.8662 16.0755 45.929 16.5769 45.9441C16.6871 45.9463 16.7957 45.9705 16.8965 46.0152C16.9973 46.0598 17.0883 46.1242 17.1642 46.2044C17.2402 46.2847 17.2995 46.3792 17.3389 46.4827C17.3782 46.5861 17.3968 46.6964 17.3935 46.8071C17.3902 46.9178 17.3651 47.0267 17.3196 47.1276C17.2742 47.2285 17.2093 47.3193 17.1287 47.3949C17.0481 47.4704 16.9534 47.5291 16.8501 47.5676C16.7469 47.6061 16.637 47.6237 16.5269 47.6193C15.9246 47.6013 15.3898 47.5237 14.9126 47.3364C14.4195 47.1429 14.0306 46.8483 13.6997 46.4607C13.4913 46.2169 13.3079 45.9383 13.137 45.6353L12.6727 47.7864Z" fill="black"/>
<path d="M9.57581 48.5503L10.9575 49.8827L10.3215 52.0392C10.2723 52.2061 10.1727 52.3534 10.0364 52.4608L7.8965 54.1464C7.81029 54.2142 7.71162 54.2644 7.60614 54.2939C7.50065 54.3235 7.39041 54.3318 7.28171 54.3185C7.17301 54.3052 7.06798 54.2706 6.97261 54.2165C6.87724 54.1624 6.79341 54.0899 6.72589 54.0033C6.65837 53.9166 6.6085 53.8174 6.57911 53.7114C6.54972 53.6054 6.5414 53.4945 6.55462 53.3853C6.56784 53.276 6.60234 53.1704 6.65614 53.0746C6.70995 52.9787 6.78202 52.8944 6.86823 52.8265L8.79888 51.3064L9.38033 49.333L9.57581 48.5503Z" fill="black"/>
<path d="M23.8701 43.5299L27.0201 36.7959V36.3479H23.0441V34.6259H28.9521V36.8099L25.6621 44.0339L23.8701 43.5299ZM34.4163 36.8659H36.2783V37.2579C36.6236 37.0619 36.9223 36.9219 37.1743 36.8379C37.4356 36.7446 37.7063 36.6979 37.9863 36.6979C38.313 36.6979 38.6256 36.7539 38.9243 36.8659C39.2323 36.9686 39.4843 37.1319 39.6803 37.3559C40.119 37.1319 40.5296 36.9686 40.9123 36.8659C41.3043 36.7539 41.701 36.6979 42.1023 36.6979C42.9703 36.6979 43.5863 36.9639 43.9503 37.4959C44.3143 38.0279 44.4963 38.8866 44.4963 40.0719V43.8659H42.6203V40.1279C42.6203 39.5026 42.5503 39.0546 42.4103 38.7839C42.2703 38.5132 42.009 38.3779 41.6263 38.3779C41.3556 38.3779 40.9963 38.4432 40.5483 38.5739L40.3383 38.6439C40.3756 39.2692 40.3943 39.8012 40.3943 40.2399V43.8659H38.5183V40.2679C38.5183 39.7639 38.4903 39.3812 38.4343 39.1199C38.3876 38.8586 38.2896 38.6719 38.1403 38.5599C38.0003 38.4386 37.7856 38.3779 37.4963 38.3779C37.1976 38.3779 36.8523 38.4432 36.4603 38.5739L36.2923 38.6299V43.8659H34.4163V36.8659ZM46.4404 36.8659H48.3164V43.8659H46.4404V36.8659ZM46.4404 34.0799H48.3164V35.9699H46.4404V34.0799ZM50.3298 36.8659H52.1918V37.2579C52.5465 37.0526 52.8591 36.9079 53.1298 36.8239C53.4098 36.7399 53.7085 36.6979 54.0258 36.6979C54.8845 36.6979 55.4958 36.9732 55.8598 37.5239C56.2238 38.0746 56.4058 38.9239 56.4058 40.0719V43.8659H54.5298V40.1279C54.5298 39.4839 54.4505 39.0312 54.2918 38.7699C54.1425 38.5086 53.8531 38.3779 53.4238 38.3779C53.1158 38.3779 52.7658 38.4432 52.3738 38.5739L52.2058 38.6299V43.8659H50.3298V36.8659Z" fill="#007D17"/>
<path d="M25.5944 49.3201L23.6504 50.5801L23.1344 49.7281L25.6784 48.0241H26.7464V55.9441H25.5944V49.3201ZM32.2372 56.0761C31.5812 56.0761 30.8452 55.9881 30.0292 55.8121L29.6452 55.7161L29.7292 54.8041C30.6172 54.9881 31.3372 55.0801 31.8892 55.0801C32.4572 55.0801 32.8972 54.9761 33.2092 54.7681C33.5212 54.5521 33.6772 54.1961 33.6772 53.7001C33.6772 53.2601 33.5492 52.9281 33.2932 52.7041C33.0452 52.4801 32.6772 52.3601 32.1892 52.3441H30.5932V51.3721H32.1892C32.3972 51.3721 32.6012 51.3161 32.8012 51.2041C33.0092 51.0841 33.1772 50.9201 33.3052 50.7121C33.4332 50.5041 33.4972 50.2721 33.4972 50.0161C33.4972 49.6241 33.3772 49.3401 33.1372 49.1641C32.9052 48.9881 32.5172 48.9001 31.9732 48.9001C31.4452 48.9001 30.8412 48.9601 30.1612 49.0801L29.8492 49.1401L29.7532 48.2521C30.4972 48.0121 31.3052 47.8921 32.1772 47.8921C33.0492 47.8921 33.6812 48.0601 34.0732 48.3961C34.4732 48.7241 34.6732 49.2481 34.6732 49.9681C34.6732 50.3761 34.5772 50.7361 34.3852 51.0481C34.2012 51.3601 33.9332 51.6041 33.5812 51.7801C33.8932 51.9081 34.1372 52.0441 34.3132 52.1881C34.4972 52.3321 34.6332 52.5201 34.7212 52.7521C34.8092 52.9761 34.8532 53.2761 34.8532 53.6521C34.8532 54.4761 34.6412 55.0881 34.2172 55.4881C33.8012 55.8801 33.1412 56.0761 32.2372 56.0761ZM39.2401 56.0641C38.2321 56.0641 37.4881 55.7481 37.0081 55.1161C36.5281 54.4761 36.2881 53.4281 36.2881 51.9721C36.2881 50.5161 36.5281 49.4721 37.0081 48.8401C37.4961 48.2001 38.2401 47.8801 39.2401 47.8801C40.2401 47.8801 40.9801 48.2001 41.4601 48.8401C41.9401 49.4721 42.1801 50.5161 42.1801 51.9721C42.1801 53.4281 41.9401 54.4761 41.4601 55.1161C40.9801 55.7481 40.2401 56.0641 39.2401 56.0641ZM39.2401 55.0561C39.6561 55.0561 39.9921 54.9601 40.2481 54.7681C40.5041 54.5681 40.6921 54.2441 40.8121 53.7961C40.9321 53.3481 40.9921 52.7401 40.9921 51.9721C40.9921 51.2041 40.9321 50.6001 40.8121 50.1601C40.6921 49.7121 40.5041 49.3921 40.2481 49.2001C39.9921 49.0001 39.6561 48.9001 39.2401 48.9001C38.8241 48.9001 38.4881 49.0001 38.2321 49.2001C37.9761 49.3921 37.7881 49.7121 37.6681 50.1601C37.5481 50.6001 37.4881 51.2041 37.4881 51.9721C37.4881 52.7401 37.5481 53.3481 37.6681 53.7961C37.7881 54.2441 37.9761 54.5681 38.2321 54.7681C38.4881 54.9601 38.8241 55.0561 39.2401 55.0561ZM46.5396 49.9441H47.6436V50.3401C47.9476 50.1641 48.2356 50.0321 48.5076 49.9441C48.7796 49.8561 49.0596 49.8121 49.3476 49.8121C49.6596 49.8121 49.9476 49.8641 50.2116 49.9681C50.4756 50.0641 50.6836 50.2121 50.8356 50.4121C51.1556 50.2361 51.5036 50.0921 51.8796 49.9801C52.2636 49.8681 52.6516 49.8121 53.0436 49.8121C53.5396 49.8121 53.9276 49.9121 54.2076 50.1121C54.4876 50.3121 54.6876 50.6241 54.8076 51.0481C54.9276 51.4721 54.9876 52.0401 54.9876 52.7521V55.9441H53.8716V52.7761C53.8716 52.2721 53.8396 51.8841 53.7756 51.6121C53.7196 51.3321 53.6116 51.1321 53.4516 51.0121C53.2996 50.8841 53.0716 50.8201 52.7676 50.8201C52.5436 50.8201 52.3116 50.8481 52.0716 50.9041C51.8316 50.9521 51.6196 51.0161 51.4356 51.0961L51.2196 51.1921C51.3076 51.5361 51.3516 52.0801 51.3516 52.8241V55.9441H50.2236V52.8481C50.2236 52.3121 50.1956 51.9041 50.1396 51.6241C50.0836 51.3361 49.9756 51.1321 49.8156 51.0121C49.6636 50.8841 49.4356 50.8201 49.1316 50.8201C48.9076 50.8201 48.6756 50.8481 48.4356 50.9041C48.2036 50.9601 48.0076 51.0241 47.8476 51.0961L47.6556 51.1921V55.9441H46.5396V49.9441Z" fill="black"/>
</svg>
