<svg width="335" height="44" viewBox="0 0 335 44" fill="none" xmlns="http://www.w3.org/2000/svg">
<path d="M236.636 11.5625H207V43H279V11.5625H249.727L243.182 5L236.636 11.5625Z" fill="white" stroke="#333333"/>
<path d="M222.021 21.3333C222.021 21.7754 221.845 22.1993 221.533 22.5118C221.22 22.8244 220.796 23 220.354 23C219.912 23 219.488 22.8244 219.176 22.5118C218.863 22.1993 218.688 21.7754 218.688 21.3333C218.688 20.8913 218.863 20.4674 219.176 20.1548C219.488 19.8423 219.912 19.6667 220.354 19.6667C220.796 19.6667 221.22 19.8423 221.533 20.1548C221.845 20.4674 222.021 20.8913 222.021 21.3333ZM219.705 29.8321L221.869 31.9671C221.952 32.049 222.017 32.1473 222.06 32.2558L223.213 35.1954C223.294 35.4012 223.29 35.6306 223.201 35.8332C223.113 36.0358 222.948 36.1951 222.742 36.2758C222.536 36.3566 222.307 36.3524 222.104 36.264C221.902 36.1756 221.742 36.0104 221.662 35.8046L220.573 33.0292L216.853 29.3583C216.763 29.2697 216.694 29.1618 216.652 29.0428C216.61 28.9237 216.595 28.7967 216.61 28.6713L216.908 26.0379C216.189 26.7521 215.635 27.7558 215.21 29.0863C215.179 29.1923 215.126 29.291 215.056 29.3765C214.986 29.462 214.899 29.5327 214.801 29.5843C214.703 29.636 214.596 29.6676 214.486 29.6774C214.375 29.6871 214.264 29.6748 214.159 29.6412C214.053 29.6075 213.956 29.5532 213.871 29.4813C213.787 29.4095 213.718 29.3216 213.668 29.2228C213.618 29.1239 213.589 29.0162 213.581 28.9057C213.573 28.7953 213.587 28.6844 213.623 28.5796C214.402 26.1379 215.696 24.3104 217.867 23.4725L217.876 23.4688C218.429 23.2633 219.004 23.28 219.517 23.5446C220.009 23.7992 220.359 24.2388 220.589 24.7313L220.859 25.3146C221.062 25.7554 221.233 26.1271 221.398 26.4529C221.628 26.9113 221.813 27.2154 221.997 27.4288C222.167 27.6263 222.335 27.7479 222.551 27.8321C222.783 27.9225 223.107 27.985 223.608 28C223.718 28.0022 223.827 28.0262 223.928 28.0706C224.029 28.1151 224.12 28.179 224.195 28.2588C224.271 28.3386 224.331 28.4327 224.37 28.5356C224.409 28.6384 224.428 28.7481 224.425 28.8582C224.421 28.9683 224.396 29.0766 224.351 29.1769C224.305 29.2773 224.24 29.3676 224.16 29.4427C224.079 29.5178 223.985 29.5762 223.881 29.6145C223.778 29.6528 223.668 29.6702 223.558 29.6658C222.956 29.6479 222.422 29.5708 221.945 29.3846C221.452 29.1921 221.063 28.8992 220.732 28.5138C220.524 28.2713 220.34 27.9942 220.17 27.6929L219.705 29.8321Z" fill="black"/>
<path d="M216.61 30.5917L217.991 31.9167L217.355 34.0613C217.306 34.2272 217.206 34.3737 217.07 34.4804L214.931 36.1567C214.845 36.2242 214.746 36.274 214.641 36.3034C214.535 36.3328 214.425 36.3411 214.316 36.3279C214.208 36.3147 214.103 36.2802 214.007 36.2264C213.912 36.1726 213.828 36.1006 213.761 36.0144C213.693 35.9282 213.643 35.8296 213.614 35.7241C213.585 35.6187 213.576 35.5085 213.589 35.3998C213.603 35.2911 213.637 35.1861 213.691 35.0908C213.745 34.9955 213.817 34.9117 213.903 34.8442L215.833 33.3325L216.414 31.37L216.61 30.5917Z" fill="black"/>
<path d="M232.302 18.944L230.3 20.232L229.418 18.79L232.47 16.76H234.234V26H232.302V18.944ZM240.43 26.168C239.301 26.168 238.442 25.7573 237.854 24.936C237.275 24.1053 236.986 22.8873 236.986 21.282C236.986 19.7047 237.313 18.5287 237.966 17.754C238.619 16.9793 239.576 16.592 240.836 16.592C241.583 16.592 242.362 16.6947 243.174 16.9L243.608 16.998L243.44 18.482C242.488 18.342 241.662 18.272 240.962 18.272C239.637 18.272 238.974 18.9907 238.974 20.428L239.268 20.344C239.865 20.1667 240.355 20.078 240.738 20.078C241.802 20.078 242.595 20.3207 243.118 20.806C243.65 21.2913 243.916 22.0427 243.916 23.06C243.916 24.0773 243.617 24.852 243.02 25.384C242.432 25.9067 241.569 26.168 240.43 26.168ZM240.528 24.488C240.976 24.488 241.321 24.3667 241.564 24.124C241.807 23.872 241.928 23.522 241.928 23.074C241.928 22.1967 241.475 21.758 240.57 21.758C240.15 21.758 239.693 21.8373 239.198 21.996L238.96 22.066C238.96 23.6807 239.483 24.488 240.528 24.488ZM248.834 19H250.696V19.392C251.042 19.196 251.34 19.056 251.592 18.972C251.854 18.8787 252.124 18.832 252.404 18.832C252.731 18.832 253.044 18.888 253.342 19C253.65 19.1027 253.902 19.266 254.098 19.49C254.537 19.266 254.948 19.1027 255.33 19C255.722 18.888 256.119 18.832 256.52 18.832C257.388 18.832 258.004 19.098 258.368 19.63C258.732 20.162 258.914 21.0207 258.914 22.206V26H257.038V22.262C257.038 21.6367 256.968 21.1887 256.828 20.918C256.688 20.6473 256.427 20.512 256.044 20.512C255.774 20.512 255.414 20.5773 254.966 20.708L254.756 20.778C254.794 21.4033 254.812 21.9353 254.812 22.374V26H252.936V22.402C252.936 21.898 252.908 21.5153 252.852 21.254C252.806 20.9927 252.708 20.806 252.558 20.694C252.418 20.5727 252.204 20.512 251.914 20.512C251.616 20.512 251.27 20.5773 250.878 20.708L250.71 20.764V26H248.834V19ZM260.858 19H262.734V26H260.858V19ZM260.858 16.214H262.734V18.104H260.858V16.214ZM264.748 19H266.61V19.392C266.964 19.1867 267.277 19.042 267.548 18.958C267.828 18.874 268.126 18.832 268.444 18.832C269.302 18.832 269.914 19.1073 270.278 19.658C270.642 20.2087 270.824 21.058 270.824 22.206V26H268.948V22.262C268.948 21.618 268.868 21.1653 268.71 20.904C268.56 20.6427 268.271 20.512 267.842 20.512C267.534 20.512 267.184 20.5773 266.792 20.708L266.624 20.764V26H264.748V19Z" fill="#007D17"/>
<path d="M233.456 38.132C231.472 38.132 230.48 37.416 230.48 35.984C230.48 35.456 230.572 35.044 230.756 34.748C230.948 34.452 231.272 34.164 231.728 33.884C231.32 33.644 231.032 33.388 230.864 33.116C230.696 32.844 230.612 32.48 230.612 32.024C230.612 31.352 230.864 30.836 231.368 30.476C231.864 30.124 232.556 29.948 233.444 29.948C234.332 29.948 235.032 30.132 235.544 30.5C236.064 30.86 236.324 31.372 236.324 32.036C236.324 32.516 236.24 32.884 236.072 33.14C235.912 33.388 235.604 33.636 235.148 33.884C235.612 34.132 235.944 34.4 236.144 34.688C236.344 34.976 236.444 35.364 236.444 35.852C236.444 36.612 236.188 37.184 235.676 37.568C235.172 37.944 234.432 38.132 233.456 38.132ZM234.032 33.44C234.4 33.296 234.668 33.128 234.836 32.936C235.012 32.736 235.1 32.488 235.1 32.192C235.1 31.384 234.556 30.98 233.468 30.98C232.38 30.98 231.836 31.384 231.836 32.192C231.836 32.488 231.916 32.736 232.076 32.936C232.236 33.128 232.488 33.296 232.832 33.44H234.032ZM233.468 37.088C234.636 37.088 235.22 36.628 235.22 35.708C235.22 35.364 235.124 35.1 234.932 34.916C234.748 34.724 234.448 34.56 234.032 34.424H232.832C232.448 34.544 232.164 34.708 231.98 34.916C231.796 35.124 231.704 35.404 231.704 35.756C231.704 36.644 232.292 37.088 233.468 37.088ZM240.423 38.12C239.415 38.12 238.671 37.804 238.191 37.172C237.711 36.532 237.471 35.484 237.471 34.028C237.471 32.572 237.711 31.528 238.191 30.896C238.679 30.256 239.423 29.936 240.423 29.936C241.423 29.936 242.163 30.256 242.643 30.896C243.123 31.528 243.363 32.572 243.363 34.028C243.363 35.484 243.123 36.532 242.643 37.172C242.163 37.804 241.423 38.12 240.423 38.12ZM240.423 37.112C240.839 37.112 241.175 37.016 241.431 36.824C241.687 36.624 241.875 36.3 241.995 35.852C242.115 35.404 242.175 34.796 242.175 34.028C242.175 33.26 242.115 32.656 241.995 32.216C241.875 31.768 241.687 31.448 241.431 31.256C241.175 31.056 240.839 30.956 240.423 30.956C240.007 30.956 239.671 31.056 239.415 31.256C239.159 31.448 238.971 31.768 238.851 32.216C238.731 32.656 238.671 33.26 238.671 34.028C238.671 34.796 238.731 35.404 238.851 35.852C238.971 36.3 239.159 36.624 239.415 36.824C239.671 37.016 240.007 37.112 240.423 37.112ZM247.378 38.12C246.37 38.12 245.626 37.804 245.146 37.172C244.666 36.532 244.426 35.484 244.426 34.028C244.426 32.572 244.666 31.528 245.146 30.896C245.634 30.256 246.378 29.936 247.378 29.936C248.378 29.936 249.118 30.256 249.598 30.896C250.078 31.528 250.318 32.572 250.318 34.028C250.318 35.484 250.078 36.532 249.598 37.172C249.118 37.804 248.378 38.12 247.378 38.12ZM247.378 37.112C247.794 37.112 248.13 37.016 248.386 36.824C248.642 36.624 248.83 36.3 248.95 35.852C249.07 35.404 249.13 34.796 249.13 34.028C249.13 33.26 249.07 32.656 248.95 32.216C248.83 31.768 248.642 31.448 248.386 31.256C248.13 31.056 247.794 30.956 247.378 30.956C246.962 30.956 246.626 31.056 246.37 31.256C246.114 31.448 245.926 31.768 245.806 32.216C245.686 32.656 245.626 33.26 245.626 34.028C245.626 34.796 245.686 35.404 245.806 35.852C245.926 36.3 246.114 36.624 246.37 36.824C246.626 37.016 246.962 37.112 247.378 37.112ZM254.677 32H255.781V32.396C256.085 32.22 256.373 32.088 256.645 32C256.917 31.912 257.197 31.868 257.485 31.868C257.797 31.868 258.085 31.92 258.349 32.024C258.613 32.12 258.821 32.268 258.973 32.468C259.293 32.292 259.641 32.148 260.017 32.036C260.401 31.924 260.789 31.868 261.181 31.868C261.677 31.868 262.065 31.968 262.345 32.168C262.625 32.368 262.825 32.68 262.945 33.104C263.065 33.528 263.125 34.096 263.125 34.808V38H262.009V34.832C262.009 34.328 261.977 33.94 261.913 33.668C261.857 33.388 261.749 33.188 261.589 33.068C261.437 32.94 261.209 32.876 260.905 32.876C260.681 32.876 260.449 32.904 260.209 32.96C259.969 33.008 259.757 33.072 259.573 33.152L259.357 33.248C259.445 33.592 259.489 34.136 259.489 34.88V38H258.361V34.904C258.361 34.368 258.333 33.96 258.277 33.68C258.221 33.392 258.113 33.188 257.953 33.068C257.801 32.94 257.573 32.876 257.269 32.876C257.045 32.876 256.813 32.904 256.573 32.96C256.341 33.016 256.145 33.08 255.985 33.152L255.793 33.248V38H254.677V32Z" fill="black"/>
<path d="M2.5 20.4999H89.5H110.5L118.5 17.9999C118.667 12.6666 122.7 1.99991 137.5 1.99991C152.3 1.99991 191.333 1.99991 209 1.99991C211.5 4.33324 223.5 1.99991 223.5 1.99991H332.5" stroke="white" stroke-width="4" stroke-linecap="round" stroke-linejoin="round" stroke-dasharray="4 8"/>
</svg>
