<svg width="94" height="78" viewBox="0 0 94 78" fill="none" xmlns="http://www.w3.org/2000/svg">
<path d="M2.02521 2L2.02521 33L17.5 33L17.5 45.5L17.5 53.5L17.5 61L17.5 68" stroke="white" stroke-width="4" stroke-linecap="round" stroke-linejoin="round" stroke-dasharray="4 8"/>
<path d="M26.5414 67.3636L26.5414 77L92.7519 77L92.7519 45L26.5413 45L26.5414 54.2727L20 60.8182L26.5414 67.3636Z" fill="white" stroke="#333333"/>
<path d="M40.9789 54.3333C40.9789 54.7754 40.8038 55.1993 40.4923 55.5118C40.1807 55.8244 39.7582 56 39.3176 56C38.877 56 38.4544 55.8244 38.1429 55.5118C37.8313 55.1993 37.6563 54.7754 37.6563 54.3333C37.6563 53.8913 37.8313 53.4674 38.1429 53.1548C38.4544 52.8423 38.877 52.6667 39.3176 52.6667C39.7582 52.6667 40.1807 52.8423 40.4923 53.1548C40.8038 53.4674 40.9789 53.8913 40.9789 54.3333ZM38.6709 62.8321L40.8277 64.9671C40.9104 65.049 40.9751 65.1473 41.0175 65.2558L42.1675 68.1954C42.2481 68.4012 42.2438 68.6306 42.1557 68.8332C42.0676 69.0358 41.9029 69.1951 41.6978 69.2758C41.4927 69.3566 41.264 69.3524 41.0621 69.264C40.8601 69.1756 40.7014 69.0104 40.6209 68.8046L39.5352 66.0292L35.8272 62.3583C35.7376 62.2697 35.6692 62.1618 35.6273 62.0428C35.5854 61.9237 35.5709 61.7967 35.5851 61.6713L35.882 59.0379C35.166 59.7521 34.6136 60.7558 34.1904 62.0863C34.1588 62.1923 34.1064 62.291 34.0363 62.3765C33.9662 62.462 33.8799 62.5327 33.7823 62.5843C33.6847 62.636 33.5778 62.6676 33.4679 62.6774C33.358 62.6871 33.2472 62.6748 33.1421 62.6412C33.037 62.6075 32.9396 62.5532 32.8556 62.4813C32.7717 62.4095 32.7028 62.3216 32.6531 62.2228C32.6034 62.1239 32.5738 62.0162 32.566 61.9057C32.5583 61.7953 32.5726 61.6844 32.608 61.5796C33.3847 59.1379 34.6743 57.3104 36.8381 56.4725L36.8477 56.4688C37.3988 56.2633 37.9719 56.28 38.4828 56.5446C38.9733 56.7992 39.3226 57.2388 39.5514 57.7313L39.8205 58.3146C40.0232 58.7554 40.1935 59.1271 40.3576 59.4529C40.5872 59.9113 40.772 60.2154 40.9548 60.4288C41.1242 60.6263 41.2924 60.7479 41.5072 60.8321C41.7381 60.9225 42.0616 60.985 42.5613 61C42.671 61.0022 42.7793 61.0262 42.8797 61.0706C42.9802 61.1151 43.0708 61.179 43.1465 61.2588C43.2222 61.3386 43.2813 61.4327 43.3205 61.5356C43.3597 61.6384 43.3782 61.7481 43.3749 61.8582C43.3716 61.9683 43.3466 62.0766 43.3013 62.1769C43.256 62.2773 43.1914 62.3676 43.1111 62.4427C43.0308 62.5178 42.9364 62.5762 42.8335 62.6145C42.7306 62.6528 42.6211 62.6702 42.5114 62.6658C41.9113 62.6479 41.3784 62.5708 40.9029 62.3846C40.4115 62.1921 40.024 61.8992 39.6943 61.5138C39.4866 61.2713 39.3039 60.9942 39.1336 60.6929L38.6709 62.8321Z" fill="black"/>
<path d="M35.5851 63.5917L36.9619 64.9167L36.3281 67.0613C36.2791 67.2272 36.1798 67.3737 36.044 67.4804L33.9117 69.1567C33.8258 69.2242 33.7275 69.274 33.6224 69.3034C33.5173 69.3328 33.4075 69.3411 33.2991 69.3279C33.1908 69.3147 33.0862 69.2802 32.9911 69.2264C32.8961 69.1726 32.8126 69.1006 32.7453 69.0144C32.678 68.9282 32.6283 68.8296 32.599 68.7241C32.5698 68.6187 32.5615 68.5085 32.5746 68.3998C32.5878 68.2911 32.6222 68.1861 32.6758 68.0908C32.7294 67.9955 32.8012 67.9117 32.8871 67.8442L34.8109 66.3325L35.3903 64.37L35.5851 63.5917Z" fill="black"/>
<path d="M53.48 58.474H49.56V57.004L51.842 50.76H53.97L51.492 56.794H53.48V54.204H55.412V56.794H56.294V58.474H55.412V60H53.48V58.474ZM61.3382 53H63.2002V53.392C63.5455 53.196 63.8442 53.056 64.0962 52.972C64.3575 52.8787 64.6282 52.832 64.9082 52.832C65.2348 52.832 65.5475 52.888 65.8462 53C66.1542 53.1027 66.4062 53.266 66.6022 53.49C67.0408 53.266 67.4515 53.1027 67.8342 53C68.2262 52.888 68.6228 52.832 69.0242 52.832C69.8922 52.832 70.5082 53.098 70.8722 53.63C71.2362 54.162 71.4182 55.0207 71.4182 56.206V60H69.5422V56.262C69.5422 55.6367 69.4722 55.1887 69.3322 54.918C69.1922 54.6473 68.9308 54.512 68.5482 54.512C68.2775 54.512 67.9182 54.5773 67.4702 54.708L67.2602 54.778C67.2975 55.4033 67.3162 55.9353 67.3162 56.374V60H65.4402V56.402C65.4402 55.898 65.4122 55.5153 65.3562 55.254C65.3095 54.9927 65.2115 54.806 65.0622 54.694C64.9222 54.5727 64.7075 54.512 64.4182 54.512C64.1195 54.512 63.7742 54.5773 63.3822 54.708L63.2142 54.764V60H61.3382V53ZM73.3623 53H75.2383V60H73.3623V53ZM73.3623 50.214H75.2383V52.104H73.3623V50.214ZM77.2517 53H79.1137V53.392C79.4683 53.1867 79.781 53.042 80.0517 52.958C80.3317 52.874 80.6303 52.832 80.9477 52.832C81.8063 52.832 82.4177 53.1073 82.7817 53.658C83.1457 54.2087 83.3277 55.058 83.3277 56.206V60H81.4517V56.262C81.4517 55.618 81.3723 55.1653 81.2137 54.904C81.0643 54.6427 80.775 54.512 80.3457 54.512C80.0377 54.512 79.6877 54.5773 79.2957 54.708L79.1277 54.764V60H77.2517V53Z" fill="#007D17"/>
<path d="M52.624 65.376L50.68 66.636L50.164 65.784L52.708 64.08H53.776V72H52.624V65.376ZM59.3628 72.132C58.4108 72.132 57.6948 71.788 57.2148 71.1C56.7348 70.404 56.4948 69.368 56.4948 67.992C56.4948 66.632 56.7668 65.62 57.3108 64.956C57.8548 64.284 58.6388 63.948 59.6628 63.948C60.3028 63.948 60.9348 64.008 61.5588 64.128L61.8948 64.2L61.7868 65.112C60.9788 65.008 60.2788 64.956 59.6868 64.956C59.0388 64.956 58.5428 65.168 58.1988 65.592C57.8628 66.008 57.6948 66.62 57.6948 67.428L57.9708 67.32C58.2108 67.232 58.4748 67.16 58.7628 67.104C59.0588 67.04 59.3108 67.008 59.5188 67.008C61.3108 67.008 62.2068 67.836 62.2068 69.492C62.2068 70.34 61.9588 70.992 61.4628 71.448C60.9748 71.904 60.2748 72.132 59.3628 72.132ZM59.3628 71.112C59.9068 71.112 60.3188 70.976 60.5988 70.704C60.8788 70.424 61.0188 70.028 61.0188 69.516C61.0188 69.02 60.8828 68.648 60.6108 68.4C60.3468 68.152 59.9548 68.028 59.4348 68.028C59.2108 68.028 58.9588 68.056 58.6788 68.112C58.4068 68.168 58.1588 68.236 57.9348 68.316L57.6828 68.424C57.6828 69.28 57.8228 69.944 58.1028 70.416C58.3908 70.88 58.8108 71.112 59.3628 71.112ZM66.2697 72.12C65.2617 72.12 64.5177 71.804 64.0377 71.172C63.5577 70.532 63.3177 69.484 63.3177 68.028C63.3177 66.572 63.5577 65.528 64.0377 64.896C64.5257 64.256 65.2697 63.936 66.2697 63.936C67.2697 63.936 68.0097 64.256 68.4897 64.896C68.9697 65.528 69.2097 66.572 69.2097 68.028C69.2097 69.484 68.9697 70.532 68.4897 71.172C68.0097 71.804 67.2697 72.12 66.2697 72.12ZM66.2697 71.112C66.6857 71.112 67.0217 71.016 67.2777 70.824C67.5337 70.624 67.7217 70.3 67.8417 69.852C67.9617 69.404 68.0217 68.796 68.0217 68.028C68.0217 67.26 67.9617 66.656 67.8417 66.216C67.7217 65.768 67.5337 65.448 67.2777 65.256C67.0217 65.056 66.6857 64.956 66.2697 64.956C65.8537 64.956 65.5177 65.056 65.2617 65.256C65.0057 65.448 64.8177 65.768 64.6977 66.216C64.5777 66.656 64.5177 67.26 64.5177 68.028C64.5177 68.796 64.5777 69.404 64.6977 69.852C64.8177 70.3 65.0057 70.624 65.2617 70.824C65.5177 71.016 65.8537 71.112 66.2697 71.112ZM73.5692 66H74.6732V66.396C74.9772 66.22 75.2652 66.088 75.5372 66C75.8092 65.912 76.0892 65.868 76.3772 65.868C76.6892 65.868 76.9772 65.92 77.2412 66.024C77.5052 66.12 77.7132 66.268 77.8652 66.468C78.1852 66.292 78.5332 66.148 78.9092 66.036C79.2932 65.924 79.6812 65.868 80.0732 65.868C80.5692 65.868 80.9572 65.968 81.2372 66.168C81.5172 66.368 81.7172 66.68 81.8372 67.104C81.9572 67.528 82.0172 68.096 82.0172 68.808V72H80.9012V68.832C80.9012 68.328 80.8692 67.94 80.8052 67.668C80.7492 67.388 80.6412 67.188 80.4812 67.068C80.3292 66.94 80.1012 66.876 79.7972 66.876C79.5732 66.876 79.3412 66.904 79.1012 66.96C78.8612 67.008 78.6492 67.072 78.4652 67.152L78.2492 67.248C78.3372 67.592 78.3812 68.136 78.3812 68.88V72H77.2532V68.904C77.2532 68.368 77.2252 67.96 77.1692 67.68C77.1132 67.392 77.0052 67.188 76.8452 67.068C76.6932 66.94 76.4652 66.876 76.1612 66.876C75.9372 66.876 75.7052 66.904 75.4652 66.96C75.2332 67.016 75.0372 67.08 74.8772 67.152L74.6852 67.248V72H73.5692V66Z" fill="black"/>
</svg>
