<svg width="86" height="42" viewBox="0 0 86 42" fill="none" xmlns="http://www.w3.org/2000/svg">
<path d="M83.0306 2L83.0306 40" stroke="white" stroke-width="4" stroke-linecap="round" stroke-linejoin="round" stroke-dasharray="4 8"/>
<path d="M71.2245 27.3636L71.2245 38L1.03064 38L1.03064 4L71.2245 4L71.2245 14.2727L77.7643 20.8182L71.2245 27.3636Z" fill="white" stroke="#333333"/>
<path d="M16.9769 15.3333C16.9769 15.7754 16.8019 16.1993 16.4905 16.5118C16.179 16.8244 15.7565 17 15.316 17C14.8755 17 14.4531 16.8244 14.1416 16.5118C13.8301 16.1993 13.6551 15.7754 13.6551 15.3333C13.6551 14.8913 13.8301 14.4674 14.1416 14.1548C14.4531 13.8423 14.8755 13.6667 15.316 13.6667C15.7565 13.6667 16.179 13.8423 16.4905 14.1548C16.8019 14.4674 16.9769 14.8913 16.9769 15.3333ZM14.6695 23.8321L16.8258 25.9671C16.9085 26.049 16.9731 26.1473 17.0155 26.2558L18.1653 29.1954C18.2458 29.4012 18.2415 29.6306 18.1535 29.8332C18.0654 30.0358 17.9007 30.195 17.6957 30.2758C17.4906 30.3566 17.262 30.3523 17.0601 30.264C16.8582 30.1756 16.6995 30.0103 16.619 29.8046L15.5336 27.0292L11.8265 23.3583C11.7369 23.2697 11.6686 23.1618 11.6266 23.0428C11.5847 22.9237 11.5702 22.7967 11.5844 22.6712L11.8813 20.0379C11.1654 20.7521 10.6132 21.7558 10.1901 23.0862C10.1584 23.1923 10.1061 23.291 10.036 23.3765C9.96594 23.462 9.8796 23.5327 9.78203 23.5843C9.68446 23.636 9.5776 23.6676 9.46771 23.6774C9.35782 23.6871 9.24709 23.6748 9.14199 23.6412C9.03689 23.6075 8.93953 23.5532 8.85559 23.4813C8.77166 23.4095 8.70282 23.3216 8.65311 23.2228C8.60341 23.1239 8.57382 23.0162 8.56609 22.9057C8.55835 22.7953 8.57262 22.6844 8.60806 22.5796C9.38453 20.1379 10.6738 18.3104 12.8371 17.4725L12.8467 17.4687C13.3977 17.2633 13.9707 17.28 14.4814 17.5446C14.9718 17.7992 15.321 18.2387 15.5498 18.7312L15.8189 19.3146C16.0215 19.7554 16.1917 20.1271 16.3557 20.4529C16.5854 20.9112 16.7701 21.2154 16.9528 21.4287C17.1223 21.6262 17.2904 21.7479 17.5051 21.8321C17.736 21.9225 18.0594 21.985 18.5589 22C18.6687 22.0022 18.7769 22.0262 18.8773 22.0706C18.9777 22.1151 19.0684 22.179 19.144 22.2588C19.2197 22.3386 19.2788 22.4327 19.318 22.5356C19.3572 22.6384 19.3757 22.7481 19.3724 22.8582C19.3691 22.9683 19.3441 23.0766 19.2988 23.1769C19.2535 23.2772 19.1889 23.3676 19.1086 23.4427C19.0283 23.5178 18.934 23.5762 18.8311 23.6145C18.7282 23.6528 18.6188 23.6702 18.5091 23.6658C17.9091 23.6479 17.3764 23.5708 16.9009 23.3846C16.4097 23.1921 16.0223 22.8992 15.6926 22.5137C15.485 22.2712 15.3023 21.9942 15.1321 21.6929L14.6695 23.8321Z" fill="black"/>
<path d="M11.5844 24.5917L12.9609 25.9167L12.3272 28.0612C12.2782 28.2272 12.179 28.3737 12.0432 28.4804L9.91147 30.1567C9.82559 30.2242 9.7273 30.274 9.62221 30.3034C9.51713 30.3328 9.40731 30.3411 9.29902 30.3279C9.19073 30.3147 9.0861 30.2802 8.99109 30.2264C8.89608 30.1726 8.81257 30.1006 8.74531 30.0144C8.67805 29.9282 8.62836 29.8296 8.59909 29.7241C8.56981 29.6187 8.56152 29.5085 8.57469 29.3998C8.58785 29.2911 8.62222 29.1861 8.67583 29.0908C8.72943 28.9955 8.80122 28.9117 8.88711 28.8442L10.8104 27.3325L11.3897 25.37L11.5844 24.5917Z" fill="black"/>
<path d="M28.2172 12.944L26.2152 14.232L25.3332 12.79L28.3852 10.76H30.1492V20H28.2172V12.944ZM36.6353 13H38.4973V13.392C38.8427 13.196 39.1413 13.056 39.3933 12.972C39.6547 12.8787 39.9253 12.832 40.2053 12.832C40.532 12.832 40.8447 12.888 41.1433 13C41.4513 13.1027 41.7033 13.266 41.8993 13.49C42.338 13.266 42.7487 13.1027 43.1313 13C43.5233 12.888 43.92 12.832 44.3213 12.832C45.1893 12.832 45.8053 13.098 46.1693 13.63C46.5333 14.162 46.7153 15.0207 46.7153 16.206V20H44.8393V16.262C44.8393 15.6367 44.7693 15.1887 44.6293 14.918C44.4893 14.6473 44.228 14.512 43.8453 14.512C43.5747 14.512 43.2153 14.5773 42.7673 14.708L42.5573 14.778C42.5947 15.4033 42.6133 15.9353 42.6133 16.374V20H40.7373V16.402C40.7373 15.898 40.7093 15.5153 40.6533 15.254C40.6067 14.9927 40.5087 14.806 40.3593 14.694C40.2193 14.5727 40.0047 14.512 39.7153 14.512C39.4167 14.512 39.0713 14.5773 38.6793 14.708L38.5113 14.764V20H36.6353V13ZM48.6595 13H50.5355V20H48.6595V13ZM48.6595 10.214H50.5355V12.104H48.6595V10.214ZM52.5489 13H54.4109V13.392C54.7655 13.1867 55.0782 13.042 55.3489 12.958C55.6289 12.874 55.9275 12.832 56.2449 12.832C57.1035 12.832 57.7149 13.1073 58.0789 13.658C58.4429 14.2087 58.6249 15.058 58.6249 16.206V20H56.7489V16.262C56.7489 15.618 56.6695 15.1653 56.5109 14.904C56.3615 14.6427 56.0722 14.512 55.6429 14.512C55.3349 14.512 54.9849 14.5773 54.5929 14.708L54.4249 14.764V20H52.5489V13Z" fill="#007D17"/>
<path d="M30.1854 30.524H26.4893V29.636L28.6493 24.08H29.9094L27.6773 29.516H30.1854V27.128H31.3374V29.516H32.2614V30.524H31.3374V32H30.1854V30.524ZM36.3242 32.12C35.3162 32.12 34.5722 31.804 34.0922 31.172C33.6122 30.532 33.3722 29.484 33.3722 28.028C33.3722 26.572 33.6122 25.528 34.0922 24.896C34.5802 24.256 35.3242 23.936 36.3242 23.936C37.3242 23.936 38.0642 24.256 38.5442 24.896C39.0242 25.528 39.2642 26.572 39.2642 28.028C39.2642 29.484 39.0242 30.532 38.5442 31.172C38.0642 31.804 37.3242 32.12 36.3242 32.12ZM36.3242 31.112C36.7402 31.112 37.0762 31.016 37.3322 30.824C37.5882 30.624 37.7762 30.3 37.8962 29.852C38.0162 29.404 38.0762 28.796 38.0762 28.028C38.0762 27.26 38.0162 26.656 37.8962 26.216C37.7762 25.768 37.5882 25.448 37.3322 25.256C37.0762 25.056 36.7402 24.956 36.3242 24.956C35.9082 24.956 35.5722 25.056 35.3162 25.256C35.0602 25.448 34.8722 25.768 34.7522 26.216C34.6322 26.656 34.5722 27.26 34.5722 28.028C34.5722 28.796 34.6322 29.404 34.7522 29.852C34.8722 30.3 35.0602 30.624 35.3162 30.824C35.5722 31.016 35.9082 31.112 36.3242 31.112ZM43.6238 26H44.7278V26.396C45.0318 26.22 45.3198 26.088 45.5918 26C45.8638 25.912 46.1438 25.868 46.4318 25.868C46.7438 25.868 47.0318 25.92 47.2958 26.024C47.5598 26.12 47.7678 26.268 47.9198 26.468C48.2398 26.292 48.5878 26.148 48.9638 26.036C49.3478 25.924 49.7358 25.868 50.1278 25.868C50.6238 25.868 51.0118 25.968 51.2918 26.168C51.5718 26.368 51.7718 26.68 51.8918 27.104C52.0118 27.528 52.0718 28.096 52.0718 28.808V32H50.9558V28.832C50.9558 28.328 50.9238 27.94 50.8598 27.668C50.8038 27.388 50.6958 27.188 50.5358 27.068C50.3838 26.94 50.1558 26.876 49.8518 26.876C49.6278 26.876 49.3958 26.904 49.1558 26.96C48.9158 27.008 48.7038 27.072 48.5198 27.152L48.3038 27.248C48.3918 27.592 48.4358 28.136 48.4358 28.88V32H47.3078V28.904C47.3078 28.368 47.2798 27.96 47.2238 27.68C47.1678 27.392 47.0598 27.188 46.8998 27.068C46.7478 26.94 46.5198 26.876 46.2158 26.876C45.9918 26.876 45.7598 26.904 45.5198 26.96C45.2878 27.016 45.0918 27.08 44.9318 27.152L44.7398 27.248V32H43.6238V26Z" fill="black"/>
</svg>
