<svg width="121" height="309" viewBox="0 0 121 309" fill="none" xmlns="http://www.w3.org/2000/svg">
<path d="M118.5 2.5H5.5L2 306.5" stroke="white" stroke-width="4" stroke-linecap="round" stroke-linejoin="round" stroke-dasharray="4 8"/>
<path d="M13.5374 130.364L13.5374 141L83.705 141L83.705 107L13.5374 107L13.5374 117.273L7 123.818L13.5374 130.364Z" fill="white" stroke="#333333"/>
<path d="M27.9403 118.333C27.9403 118.775 27.7654 119.199 27.454 119.512C27.1427 119.824 26.7204 120 26.28 120C25.8397 120 25.4174 119.824 25.106 119.512C24.7947 119.199 24.6197 118.775 24.6197 118.333C24.6197 117.891 24.7947 117.467 25.106 117.155C25.4174 116.842 25.8397 116.667 26.28 116.667C26.7204 116.667 27.1427 116.842 27.454 117.155C27.7654 117.467 27.9403 117.891 27.9403 118.333ZM25.6338 126.832L27.7892 128.967C27.8719 129.049 27.9365 129.147 27.9789 129.256L29.1282 132.195C29.2087 132.401 29.2045 132.631 29.1164 132.833C29.0284 133.036 28.8638 133.195 28.6588 133.276C28.4538 133.357 28.2253 133.352 28.0234 133.264C27.8216 133.176 27.663 133.01 27.5825 132.805L26.4975 130.029L22.7918 126.358C22.7022 126.27 22.6339 126.162 22.592 126.043C22.5501 125.924 22.5356 125.797 22.5498 125.671L22.8466 123.038C22.131 123.752 21.5789 124.756 21.156 126.086C21.1244 126.192 21.072 126.291 21.002 126.376C20.9319 126.462 20.8456 126.533 20.7481 126.584C20.6506 126.636 20.5437 126.668 20.4339 126.677C20.324 126.687 20.2134 126.675 20.1083 126.641C20.0032 126.608 19.9059 126.553 19.822 126.481C19.7381 126.41 19.6693 126.322 19.6196 126.223C19.5699 126.124 19.5403 126.016 19.5326 125.906C19.5249 125.795 19.5391 125.684 19.5746 125.58C20.3507 123.138 21.6395 121.31 23.8021 120.473L23.8116 120.469C24.3624 120.263 24.9352 120.28 25.4457 120.545C25.9359 120.799 26.285 121.239 26.5137 121.731L26.7827 122.315C26.9852 122.755 27.1554 123.127 27.3194 123.453C27.5489 123.911 27.7336 124.215 27.9162 124.429C28.0856 124.626 28.2537 124.748 28.4683 124.832C28.6991 124.923 29.0224 124.985 29.5217 125C29.6314 125.002 29.7396 125.026 29.84 125.071C29.9404 125.115 30.031 125.179 30.1066 125.259C30.1822 125.339 30.2413 125.433 30.2805 125.536C30.3197 125.638 30.3382 125.748 30.3349 125.858C30.3316 125.968 30.3066 126.077 30.2613 126.177C30.2161 126.277 30.1515 126.368 30.0712 126.443C29.991 126.518 29.8967 126.576 29.7938 126.614C29.6909 126.653 29.5815 126.67 29.4719 126.666C28.8721 126.648 28.3396 126.571 27.8643 126.385C27.3733 126.192 26.9861 125.899 26.6565 125.514C26.449 125.271 26.2663 124.994 26.0961 124.693L25.6338 126.832Z" fill="black"/>
<path d="M22.5498 127.592L23.9258 128.917L23.2924 131.061C23.2434 131.227 23.1442 131.374 23.0085 131.48L20.8775 133.157C20.7916 133.224 20.6934 133.274 20.5883 133.303C20.4833 133.333 20.3735 133.341 20.2653 133.328C20.157 133.315 20.0524 133.28 19.9575 133.226C19.8625 133.173 19.779 133.101 19.7118 133.014C19.6445 132.928 19.5949 132.83 19.5656 132.724C19.5363 132.619 19.528 132.508 19.5412 132.4C19.5544 132.291 19.5887 132.186 19.6423 132.091C19.6959 131.995 19.7677 131.912 19.8535 131.844L21.7761 130.333L22.3551 128.37L22.5498 127.592Z" fill="black"/>
<path d="M38.1143 115.944L36.1123 117.232L35.2303 115.79L38.2823 113.76H40.0463V123H38.1143V115.944ZM45.7803 123.168C45.0336 123.168 44.2543 123.065 43.4423 122.86L43.0083 122.762L43.1763 121.278C44.1283 121.418 44.9963 121.488 45.7803 121.488C47.0216 121.488 47.6423 120.732 47.6423 119.22C47.1756 119.369 46.8116 119.477 46.5503 119.542C46.2889 119.607 46.0649 119.64 45.8783 119.64C44.8516 119.64 44.0629 119.393 43.5123 118.898C42.9709 118.394 42.7003 117.657 42.7003 116.686C42.7003 115.706 43.0036 114.945 43.6103 114.404C44.2263 113.863 45.0896 113.592 46.2003 113.592C47.3203 113.592 48.1696 114.007 48.7483 114.838C49.3363 115.669 49.6303 116.891 49.6303 118.506C49.6303 120.111 49.3083 121.292 48.6643 122.048C48.0203 122.795 47.0589 123.168 45.7803 123.168ZM46.0463 117.96C46.4756 117.96 46.9376 117.876 47.4323 117.708L47.6563 117.638C47.6563 116.061 47.1336 115.272 46.0883 115.272C45.6403 115.272 45.2949 115.398 45.0523 115.65C44.8096 115.893 44.6883 116.238 44.6883 116.686C44.6883 117.535 45.1409 117.96 46.0463 117.96ZM54.6464 116H56.5084V116.392C56.8538 116.196 57.1524 116.056 57.4044 115.972C57.6658 115.879 57.9364 115.832 58.2164 115.832C58.5431 115.832 58.8558 115.888 59.1544 116C59.4624 116.103 59.7144 116.266 59.9104 116.49C60.3491 116.266 60.7598 116.103 61.1424 116C61.5344 115.888 61.9311 115.832 62.3324 115.832C63.2004 115.832 63.8164 116.098 64.1804 116.63C64.5444 117.162 64.7264 118.021 64.7264 119.206V123H62.8504V119.262C62.8504 118.637 62.7804 118.189 62.6404 117.918C62.5004 117.647 62.2391 117.512 61.8564 117.512C61.5858 117.512 61.2264 117.577 60.7784 117.708L60.5684 117.778C60.6058 118.403 60.6244 118.935 60.6244 119.374V123H58.7484V119.402C58.7484 118.898 58.7204 118.515 58.6644 118.254C58.6178 117.993 58.5198 117.806 58.3704 117.694C58.2304 117.573 58.0158 117.512 57.7264 117.512C57.4278 117.512 57.0824 117.577 56.6904 117.708L56.5224 117.764V123H54.6464V116ZM66.6706 116H68.5466V123H66.6706V116ZM66.6706 113.214H68.5466V115.104H66.6706V113.214ZM70.5599 116H72.4219V116.392C72.7766 116.187 73.0893 116.042 73.3599 115.958C73.6399 115.874 73.9386 115.832 74.2559 115.832C75.1146 115.832 75.7259 116.107 76.0899 116.658C76.4539 117.209 76.6359 118.058 76.6359 119.206V123H74.7599V119.262C74.7599 118.618 74.6806 118.165 74.5219 117.904C74.3726 117.643 74.0833 117.512 73.6539 117.512C73.3459 117.512 72.9959 117.577 72.6039 117.708L72.4359 117.764V123H70.5599V116Z" fill="#007D17"/>
<path d="M38.5687 128.376L36.6247 129.636L36.1087 128.784L38.6527 127.08H39.7207V135H38.5687V128.376ZM45.3075 135.132C44.3555 135.132 43.6395 134.788 43.1595 134.1C42.6795 133.404 42.4395 132.368 42.4395 130.992C42.4395 129.632 42.7115 128.62 43.2555 127.956C43.7995 127.284 44.5835 126.948 45.6075 126.948C46.2475 126.948 46.8795 127.008 47.5035 127.128L47.8395 127.2L47.7315 128.112C46.9235 128.008 46.2235 127.956 45.6315 127.956C44.9835 127.956 44.4875 128.168 44.1435 128.592C43.8075 129.008 43.6395 129.62 43.6395 130.428L43.9155 130.32C44.1555 130.232 44.4195 130.16 44.7075 130.104C45.0035 130.04 45.2555 130.008 45.4635 130.008C47.2555 130.008 48.1515 130.836 48.1515 132.492C48.1515 133.34 47.9035 133.992 47.4075 134.448C46.9195 134.904 46.2195 135.132 45.3075 135.132ZM45.3075 134.112C45.8515 134.112 46.2635 133.976 46.5435 133.704C46.8235 133.424 46.9635 133.028 46.9635 132.516C46.9635 132.02 46.8275 131.648 46.5555 131.4C46.2915 131.152 45.8995 131.028 45.3795 131.028C45.1555 131.028 44.9035 131.056 44.6235 131.112C44.3515 131.168 44.1035 131.236 43.8795 131.316L43.6275 131.424C43.6275 132.28 43.7675 132.944 44.0475 133.416C44.3355 133.88 44.7555 134.112 45.3075 134.112ZM52.2143 135.12C51.2063 135.12 50.4623 134.804 49.9823 134.172C49.5023 133.532 49.2623 132.484 49.2623 131.028C49.2623 129.572 49.5023 128.528 49.9823 127.896C50.4703 127.256 51.2143 126.936 52.2143 126.936C53.2143 126.936 53.9543 127.256 54.4343 127.896C54.9143 128.528 55.1543 129.572 55.1543 131.028C55.1543 132.484 54.9143 133.532 54.4343 134.172C53.9543 134.804 53.2143 135.12 52.2143 135.12ZM52.2143 134.112C52.6303 134.112 52.9663 134.016 53.2223 133.824C53.4783 133.624 53.6663 133.3 53.7863 132.852C53.9063 132.404 53.9663 131.796 53.9663 131.028C53.9663 130.26 53.9063 129.656 53.7863 129.216C53.6663 128.768 53.4783 128.448 53.2223 128.256C52.9663 128.056 52.6303 127.956 52.2143 127.956C51.7983 127.956 51.4623 128.056 51.2063 128.256C50.9503 128.448 50.7623 128.768 50.6423 129.216C50.5223 129.656 50.4623 130.26 50.4623 131.028C50.4623 131.796 50.5223 132.404 50.6423 132.852C50.7623 133.3 50.9503 133.624 51.2063 133.824C51.4623 134.016 51.7983 134.112 52.2143 134.112ZM59.1692 135.12C58.1612 135.12 57.4172 134.804 56.9372 134.172C56.4572 133.532 56.2172 132.484 56.2172 131.028C56.2172 129.572 56.4572 128.528 56.9372 127.896C57.4252 127.256 58.1692 126.936 59.1692 126.936C60.1692 126.936 60.9092 127.256 61.3892 127.896C61.8692 128.528 62.1092 129.572 62.1092 131.028C62.1092 132.484 61.8692 133.532 61.3892 134.172C60.9092 134.804 60.1692 135.12 59.1692 135.12ZM59.1692 134.112C59.5852 134.112 59.9212 134.016 60.1772 133.824C60.4332 133.624 60.6212 133.3 60.7412 132.852C60.8612 132.404 60.9212 131.796 60.9212 131.028C60.9212 130.26 60.8612 129.656 60.7412 129.216C60.6212 128.768 60.4332 128.448 60.1772 128.256C59.9212 128.056 59.5852 127.956 59.1692 127.956C58.7532 127.956 58.4172 128.056 58.1612 128.256C57.9052 128.448 57.7172 128.768 57.5972 129.216C57.4772 129.656 57.4172 130.26 57.4172 131.028C57.4172 131.796 57.4772 132.404 57.5972 132.852C57.7172 133.3 57.9052 133.624 58.1612 133.824C58.4172 134.016 58.7532 134.112 59.1692 134.112ZM66.4687 129H67.5727V129.396C67.8767 129.22 68.1647 129.088 68.4367 129C68.7087 128.912 68.9887 128.868 69.2767 128.868C69.5887 128.868 69.8767 128.92 70.1407 129.024C70.4047 129.12 70.6127 129.268 70.7647 129.468C71.0847 129.292 71.4327 129.148 71.8087 129.036C72.1927 128.924 72.5807 128.868 72.9727 128.868C73.4687 128.868 73.8567 128.968 74.1367 129.168C74.4167 129.368 74.6167 129.68 74.7367 130.104C74.8567 130.528 74.9167 131.096 74.9167 131.808V135H73.8007V131.832C73.8007 131.328 73.7687 130.94 73.7047 130.668C73.6487 130.388 73.5407 130.188 73.3807 130.068C73.2287 129.94 73.0007 129.876 72.6967 129.876C72.4727 129.876 72.2407 129.904 72.0007 129.96C71.7607 130.008 71.5487 130.072 71.3647 130.152L71.1487 130.248C71.2367 130.592 71.2807 131.136 71.2807 131.88V135H70.1527V131.904C70.1527 131.368 70.1247 130.96 70.0687 130.68C70.0127 130.392 69.9047 130.188 69.7447 130.068C69.5927 129.94 69.3647 129.876 69.0607 129.876C68.8367 129.876 68.6047 129.904 68.3647 129.96C68.1327 130.016 67.9367 130.08 67.7767 130.152L67.5847 130.248V135H66.4687V129Z" fill="black"/>
</svg>
