<svg width="100%" height="100%" viewBox="1250 -800 6000 6000" preserveAspectRatio="none" xmlns="http://www.w3.org/2000/svg">

  <defs>
    <filter id="boxShadow" x="-20%" y="-20%" width="140%" height="140%">
      <feDropShadow dx="0" dy="20" stdDeviation="20" flood-color="#000" flood-opacity="0.2"/>
    </filter>
  </defs>

  <path d="M 4626 3932 L 4520 3792 C 4453 3727 4405 3652 4352 3556 L 4283 3404 C 4070 3487 3830 3330 3588 3052 L 2420 1520 L 3070 1140"
        stroke="white" stroke-width="15" fill="none" stroke-linecap="round" stroke-dasharray="50 50" transform="rotate(10, 4679, 3934)" />
  <path d="M 4626 3932 C 4466 3796 4365 3627 4280 3399 L 3890 2536"
        stroke="Red" stroke-width="15" fill="none" stroke-linecap="round" stroke-dasharray="50 50" transform="rotate(10, 4679, 3934)" />

  <g transform="translate(3250, 1150)" filter="url(#boxShadow)">
    <path d="M 13.5 35 L 13.5 160 L 450 160 L 450 0 L 13.5 0 L 13.5 15 L 0 25 L 13.5 35 Z" fill="white" stroke="#333333" stroke-width="12"/>

    <g transform="translate(40, 50) scale(2.2)">
       <path d="M2 15 L10 5 L35 5 L45 15 L48 20 L48 30 L0 30 L0 20 Z" fill="#333" />
       <rect x="5" y="28" width="8" height="6" fill="black" />
       <rect x="35" y="28" width="8" height="6" fill="black" />
    </g>

    <text x="160" y="70" font-family="Arial" font-size="65" font-weight="bold" fill="#007D17">13 min</text>
    <text x="160" y="135" font-family="Arial" font-size="55" fill="black">10.9 km</text>
  </g>

  <g transform="translate(4350, 3100) scale(1)" filter="url(#boxShadow)">
    <path d="M 13.5 35 L 13.5 160 L 400 160 L 400 0 L 13.5 0 L 13.5 15 L 0 25 L 13.5 35 Z" fill="white" stroke="#333333" stroke-width="12"/>

    <g transform="translate(40, 50) scale(2.2)">
       <path d="M2 15 L10 5 L35 5 L45 15 L48 20 L48 30 L0 30 L0 20 Z" fill="#333" />
       <rect x="5" y="28" width="8" height="6" fill="black" />
       <rect x="35" y="28" width="8" height="6" fill="black" />
    </g>

    <text x="160" y="70" font-family="Arial" font-size="65" font-weight="bold" fill="#007D17">7 min</text>
    <text x="160" y="135" font-family="Arial" font-size="55" fill="black">3.7 km</text>
  </g>

</svg>