<svg width="83" height="73" viewBox="0 0 83 73" fill="none" xmlns="http://www.w3.org/2000/svg">
<path d="M5 71L5 17.9084L5 6L2 2" stroke="white" stroke-width="4" stroke-linecap="round" stroke-linejoin="round" stroke-dasharray="4 7"/>
<path d="M15.515 57.0631L15.515 66.626L82.4547 66.626L82.4546 34.8702L15.515 34.8702L15.515 44.0722L8.99998 50.5677L15.515 57.0631Z" fill="white" stroke="#333333"/>
<path d="M31.8863 45.1247C31.8863 45.5633 31.7119 45.984 31.4016 46.2942C31.0913 46.6044 30.6705 46.7786 30.2317 46.7786C29.7928 46.7786 29.372 46.6044 29.0617 46.2942C28.7514 45.984 28.5771 45.5633 28.5771 45.1247C28.5771 44.686 28.7514 44.2653 29.0617 43.9552C29.372 43.645 29.7928 43.4707 30.2317 43.4707C30.6705 43.4707 31.0913 43.645 31.4016 43.9552C31.7119 44.2653 31.8863 44.686 31.8863 45.1247ZM29.5876 53.5586L31.7357 55.6773C31.8181 55.7585 31.8825 55.8561 31.9247 55.9638L33.0701 58.881C33.1503 59.0851 33.1461 59.3128 33.0583 59.5139C32.9706 59.715 32.8066 59.873 32.6023 59.9531C32.398 60.0333 32.1702 60.029 31.9691 59.9413C31.7679 59.8536 31.6099 59.6897 31.5297 59.4855L30.4484 56.7312L26.7553 53.0884C26.6661 53.0005 26.598 52.8934 26.5562 52.7753C26.5145 52.6571 26.5001 52.5311 26.5142 52.4066L26.8099 49.7934C26.0968 50.5021 25.5466 51.4982 25.1251 52.8184C25.0936 52.9237 25.0414 53.0216 24.9717 53.1064C24.9019 53.1913 24.8159 53.2614 24.7186 53.3127C24.6214 53.364 24.515 53.3953 24.4055 53.405C24.296 53.4147 24.1857 53.4025 24.081 53.3691C23.9763 53.3357 23.8793 53.2818 23.7957 53.2105C23.7121 53.1392 23.6435 53.052 23.594 52.9539C23.5445 52.8558 23.515 52.7489 23.5073 52.6393C23.4996 52.5297 23.5138 52.4197 23.5491 52.3156C24.3227 49.8926 25.607 48.079 27.7622 47.2475L27.7717 47.2438C28.3206 47.04 28.8914 47.0565 29.4002 47.3191C29.8887 47.5717 30.2366 48.0079 30.4645 48.4967L30.7326 49.0755C30.9344 49.513 31.104 49.8818 31.2674 50.2052C31.4962 50.66 31.6803 50.9619 31.8623 51.1736C32.031 51.3696 32.1986 51.4903 32.4124 51.5738C32.6424 51.6636 32.9646 51.7256 33.4623 51.7405C33.5716 51.7426 33.6794 51.7665 33.7794 51.8106C33.8795 51.8547 33.9698 51.9181 34.0451 51.9973C34.1205 52.0765 34.1794 52.1698 34.2184 52.2719C34.2575 52.374 34.2759 52.4828 34.2726 52.5921C34.2694 52.7013 34.2444 52.8088 34.1993 52.9084C34.1542 53.008 34.0898 53.0976 34.0099 53.1721C33.9299 53.2467 33.8359 53.3046 33.7334 53.3426C33.6309 53.3806 33.5219 53.3979 33.4126 53.3936C32.8149 53.3758 32.2842 53.2993 31.8106 53.1145C31.3212 52.9234 30.9353 52.6328 30.6068 52.2503C30.4 52.0096 30.218 51.7347 30.0484 51.4357L29.5876 53.5586Z" fill="black"/>
<path d="M26.5142 54.3123L27.8855 55.6272L27.2542 57.7554C27.2054 57.9201 27.1065 58.0655 26.9713 58.1714L24.8476 59.8349C24.7621 59.9018 24.6641 59.9513 24.5595 59.9805C24.4548 60.0096 24.3454 60.0179 24.2375 60.0048C24.1296 59.9917 24.0254 59.9574 23.9307 59.9041C23.8361 59.8507 23.7529 59.7792 23.6859 59.6937C23.6189 59.6081 23.5694 59.5103 23.5402 59.4056C23.511 59.301 23.5028 59.1916 23.5159 59.0838C23.529 58.9759 23.5633 58.8717 23.6167 58.7771C23.6701 58.6825 23.7416 58.5994 23.8271 58.5324L25.7432 57.0323L26.3202 55.0847L26.5142 54.3123Z" fill="black"/>
<path d="M43.5612 49.8473V48.3073H39.3612V46.9073L41.4612 40.6073H43.6172L41.2792 46.6973H43.5612L43.6732 44.3173L45.4652 44.2893V46.6973H46.3192V48.3073H45.4652V49.8473H43.5612ZM51.0714 49.8473V42.8193H52.9334V43.2673C53.148 43.1367 53.4374 43.006 53.8014 42.8753C54.1654 42.7353 54.5107 42.6653 54.8374 42.6653C55.2667 42.6653 55.6167 42.726 55.8874 42.8473C56.158 42.9593 56.382 43.1273 56.5594 43.3513C56.7274 43.2487 56.9374 43.146 57.1894 43.0433C57.4414 42.9407 57.7167 42.852 58.0154 42.7773C58.314 42.7027 58.6034 42.6653 58.8834 42.6653C59.574 42.6653 60.1014 42.7867 60.4654 43.0293C60.8294 43.272 61.0814 43.6547 61.2214 44.1773C61.3614 44.6907 61.4314 45.3627 61.4314 46.1933V49.8473H59.5694V46.3613C59.5694 45.876 59.5414 45.484 59.4854 45.1853C59.4387 44.8773 59.336 44.6533 59.1774 44.5133C59.028 44.3733 58.7994 44.3033 58.4914 44.3033C58.2207 44.3033 57.9547 44.3407 57.6934 44.4153C57.432 44.49 57.2267 44.5647 57.0774 44.6393C57.124 44.8353 57.1567 45.0873 57.1754 45.3953C57.2034 45.7033 57.2174 46.0253 57.2174 46.3613V49.8473H55.3554V46.3893C55.3554 45.8947 55.3274 45.4933 55.2714 45.1853C55.2247 44.8773 55.122 44.6533 54.9634 44.5133C54.8047 44.3733 54.576 44.3033 54.2774 44.3033C54.016 44.3033 53.7594 44.3407 53.5074 44.4153C53.2647 44.49 53.0734 44.5647 52.9334 44.6393V49.8473H51.0714ZM63.1912 49.8473V42.8193H65.0532V49.8473H63.1912ZM63.1912 41.6993V40.1033H65.0672V41.6993H63.1912ZM66.8892 49.8473V42.8193H68.7512V43.2673C68.9005 43.174 69.0825 43.0853 69.2972 43.0013C69.5118 42.908 69.7358 42.8287 69.9692 42.7633C70.2118 42.698 70.4452 42.6653 70.6692 42.6653C71.3225 42.6653 71.8265 42.782 72.1812 43.0153C72.5452 43.2393 72.8018 43.6127 72.9512 44.1353C73.1005 44.6487 73.1752 45.3393 73.1752 46.2073V49.8473H71.2992V46.3053C71.2992 45.82 71.2712 45.4327 71.2152 45.1433C71.1592 44.8447 71.0518 44.63 70.8932 44.4993C70.7345 44.3687 70.5012 44.3033 70.1932 44.3033C70.0252 44.3033 69.8478 44.322 69.6612 44.3593C69.4838 44.3873 69.3112 44.4293 69.1432 44.4853C68.9845 44.5413 68.8538 44.5973 68.7512 44.6533V49.8473H66.8892Z" fill="#007D17"/>
<path d="M44.5204 61.7405V55.0805L42.5404 56.3525L42.0604 55.5005L44.6164 53.8205H45.6604V61.7405H44.5204ZM51.2596 61.8605C50.2516 61.8605 49.5196 61.5005 49.0636 60.7805C48.6076 60.0525 48.3796 59.0445 48.3796 57.7565C48.3796 57.0285 48.4516 56.4085 48.5956 55.8965C48.7396 55.3765 48.9476 54.9565 49.2196 54.6365C49.4996 54.3085 49.8316 54.0725 50.2156 53.9285C50.6076 53.7765 51.0396 53.7005 51.5116 53.7005C51.7596 53.7005 52.0196 53.7125 52.2916 53.7365C52.5716 53.7605 52.8396 53.7925 53.0956 53.8325C53.3516 53.8645 53.5676 53.8965 53.7436 53.9285L53.6356 54.8285C53.4836 54.8125 53.2876 54.7965 53.0476 54.7805C52.8076 54.7565 52.5556 54.7365 52.2916 54.7205C52.0276 54.7045 51.7716 54.6965 51.5236 54.6965C50.8836 54.6965 50.3956 54.9125 50.0596 55.3445C49.7236 55.7685 49.5476 56.3805 49.5316 57.1805C49.6116 57.1645 49.7156 57.1325 49.8436 57.0845C49.9796 57.0365 50.1356 56.9885 50.3116 56.9405C50.4956 56.8845 50.6796 56.8405 50.8636 56.8085C51.0476 56.7685 51.2276 56.7485 51.4036 56.7485C52.2756 56.7485 52.9356 56.9525 53.3836 57.3605C53.8316 57.7605 54.0556 58.3885 54.0556 59.2445C54.0556 59.8045 53.9436 60.2845 53.7196 60.6845C53.5036 61.0765 53.1876 61.3725 52.7716 61.5725C52.3556 61.7645 51.8516 61.8605 51.2596 61.8605ZM51.2596 60.8765C51.7956 60.8765 52.2036 60.7365 52.4836 60.4565C52.7716 60.1685 52.9156 59.7605 52.9156 59.2325C52.9156 58.7285 52.7716 58.3525 52.4836 58.1045C52.2036 57.8565 51.8116 57.7325 51.3076 57.7325C51.0996 57.7325 50.8836 57.7565 50.6596 57.8045C50.4356 57.8525 50.2236 57.9085 50.0236 57.9725C49.8236 58.0285 49.6556 58.0885 49.5196 58.1525C49.5276 58.6645 49.5876 59.1285 49.6996 59.5445C49.8116 59.9605 49.9916 60.2885 50.2396 60.5285C50.4956 60.7605 50.8356 60.8765 51.2596 60.8765ZM58.1187 61.8605C57.6467 61.8605 57.2307 61.7965 56.8707 61.6685C56.5107 61.5325 56.2067 61.3125 55.9587 61.0085C55.7107 60.7045 55.5187 60.2965 55.3827 59.7845C55.2547 59.2725 55.1907 58.6405 55.1907 57.8885C55.1907 57.0885 55.2547 56.4205 55.3827 55.8845C55.5107 55.3405 55.6987 54.9085 55.9467 54.5885C56.2027 54.2685 56.5107 54.0405 56.8707 53.9045C57.2307 53.7605 57.6427 53.6885 58.1067 53.6885C58.5947 53.6885 59.0187 53.7605 59.3787 53.9045C59.7467 54.0405 60.0507 54.2685 60.2907 54.5885C60.5387 54.9085 60.7227 55.3365 60.8427 55.8725C60.9707 56.4085 61.0347 57.0805 61.0347 57.8885C61.0347 58.8885 60.9227 59.6805 60.6987 60.2645C60.4747 60.8405 60.1467 61.2525 59.7147 61.5005C59.2827 61.7405 58.7507 61.8605 58.1187 61.8605ZM58.1187 60.8645C58.4067 60.8645 58.6587 60.8205 58.8747 60.7325C59.0907 60.6365 59.2707 60.4805 59.4147 60.2645C59.5667 60.0405 59.6787 59.7365 59.7507 59.3525C59.8227 58.9605 59.8587 58.4725 59.8587 57.8885C59.8587 57.2485 59.8227 56.7245 59.7507 56.3165C59.6867 55.9005 59.5827 55.5765 59.4387 55.3445C59.2947 55.1045 59.1147 54.9365 58.8987 54.8405C58.6827 54.7365 58.4227 54.6845 58.1187 54.6845C57.8307 54.6845 57.5747 54.7365 57.3507 54.8405C57.1267 54.9365 56.9427 55.1005 56.7987 55.3325C56.6627 55.5645 56.5587 55.8885 56.4867 56.3045C56.4147 56.7205 56.3787 57.2525 56.3787 57.9005C56.3787 58.4845 56.4147 58.9725 56.4867 59.3645C56.5667 59.7485 56.6787 60.0485 56.8227 60.2645C56.9747 60.4805 57.1587 60.6365 57.3747 60.7325C57.5907 60.8205 57.8387 60.8645 58.1187 60.8645ZM65.3828 61.7405V55.7285H66.4988V56.1485C66.6828 56.0365 66.9348 55.9205 67.2548 55.8005C67.5828 55.6725 67.8988 55.6085 68.2028 55.6085C68.5948 55.6085 68.9108 55.6565 69.1508 55.7525C69.3908 55.8485 69.5868 56.0045 69.7388 56.2205C69.8908 56.1325 70.0788 56.0405 70.3028 55.9445C70.5348 55.8485 70.7828 55.7685 71.0468 55.7045C71.3108 55.6405 71.5708 55.6085 71.8268 55.6085C72.3788 55.6085 72.8028 55.7045 73.0988 55.8965C73.4028 56.0885 73.6108 56.4045 73.7228 56.8445C73.8348 57.2765 73.8908 57.8525 73.8908 58.5725V61.7405H72.7868V58.6445C72.7868 58.1485 72.7588 57.7525 72.7028 57.4565C72.6468 57.1605 72.5348 56.9445 72.3668 56.8085C72.2068 56.6725 71.9588 56.6045 71.6228 56.6045C71.3268 56.6045 71.0348 56.6485 70.7468 56.7365C70.4668 56.8245 70.2468 56.9125 70.0868 57.0005C70.1428 57.1925 70.1788 57.4405 70.1948 57.7445C70.2188 58.0405 70.2308 58.3445 70.2308 58.6565V61.7405H69.1148V58.6805C69.1148 58.1685 69.0868 57.7645 69.0308 57.4685C68.9828 57.1645 68.8748 56.9445 68.7068 56.8085C68.5388 56.6725 68.2908 56.6045 67.9628 56.6045C67.6828 56.6045 67.4028 56.6485 67.1228 56.7365C66.8508 56.8245 66.6428 56.9125 66.4988 57.0005V61.7405H65.3828Z" fill="black"/>
</svg>
