<svg width="360" height="44" viewBox="0 0 360 44" fill="none" xmlns="http://www.w3.org/2000/svg">
<path d="M261.636 11.5625H232V43H304V11.5625H274.727L268.182 5L261.636 11.5625Z" fill="white" stroke="#333333"/>
<path d="M247.021 21.3333C247.021 21.7754 246.845 22.1993 246.533 22.5118C246.22 22.8244 245.796 23 245.354 23C244.912 23 244.488 22.8244 244.176 22.5118C243.863 22.1993 243.688 21.7754 243.688 21.3333C243.688 20.8913 243.863 20.4674 244.176 20.1548C244.488 19.8423 244.912 19.6667 245.354 19.6667C245.796 19.6667 246.22 19.8423 246.533 20.1548C246.845 20.4674 247.021 20.8913 247.021 21.3333ZM244.705 29.8321L246.869 31.9671C246.952 32.049 247.017 32.1473 247.06 32.2558L248.213 35.1954C248.294 35.4012 248.29 35.6306 248.201 35.8332C248.113 36.0358 247.948 36.1951 247.742 36.2758C247.536 36.3566 247.307 36.3524 247.104 36.264C246.902 36.1756 246.742 36.0104 246.662 35.8046L245.573 33.0292L241.853 29.3583C241.763 29.2697 241.694 29.1618 241.652 29.0428C241.61 28.9237 241.595 28.7967 241.61 28.6713L241.908 26.0379C241.189 26.7521 240.635 27.7558 240.21 29.0863C240.179 29.1923 240.126 29.291 240.056 29.3765C239.986 29.462 239.899 29.5327 239.801 29.5843C239.703 29.636 239.596 29.6676 239.486 29.6774C239.375 29.6871 239.264 29.6748 239.159 29.6412C239.053 29.6075 238.956 29.5532 238.871 29.4813C238.787 29.4095 238.718 29.3216 238.668 29.2228C238.618 29.1239 238.589 29.0162 238.581 28.9057C238.573 28.7953 238.587 28.6844 238.623 28.5796C239.402 26.1379 240.696 24.3104 242.867 23.4725L242.876 23.4688C243.429 23.2633 244.004 23.28 244.517 23.5446C245.009 23.7992 245.359 24.2388 245.589 24.7313L245.859 25.3146C246.062 25.7554 246.233 26.1271 246.398 26.4529C246.628 26.9113 246.813 27.2154 246.997 27.4288C247.167 27.6263 247.335 27.7479 247.551 27.8321C247.783 27.9225 248.107 27.985 248.608 28C248.718 28.0022 248.827 28.0262 248.928 28.0706C249.029 28.1151 249.12 28.179 249.195 28.2588C249.271 28.3386 249.331 28.4327 249.37 28.5356C249.409 28.6384 249.428 28.7481 249.425 28.8582C249.421 28.9683 249.396 29.0766 249.351 29.1769C249.305 29.2773 249.24 29.3676 249.16 29.4427C249.079 29.5178 248.985 29.5762 248.881 29.6145C248.778 29.6528 248.668 29.6702 248.558 29.6658C247.956 29.6479 247.422 29.5708 246.945 29.3846C246.452 29.1921 246.063 28.8992 245.732 28.5138C245.524 28.2713 245.34 27.9942 245.17 27.6929L244.705 29.8321Z" fill="black"/>
<path d="M241.61 30.5917L242.991 31.9167L242.355 34.0613C242.306 34.2272 242.206 34.3737 242.07 34.4804L239.931 36.1567C239.845 36.2242 239.746 36.274 239.641 36.3034C239.535 36.3328 239.425 36.3411 239.316 36.3279C239.208 36.3147 239.103 36.2802 239.007 36.2264C238.912 36.1726 238.828 36.1006 238.761 36.0144C238.693 35.9282 238.643 35.8296 238.614 35.7241C238.585 35.6187 238.576 35.5085 238.589 35.3998C238.603 35.2911 238.637 35.1861 238.691 35.0908C238.745 34.9955 238.817 34.9117 238.903 34.8442L240.833 33.3325L241.414 31.37L241.61 30.5917Z" fill="black"/>
<path d="M257.302 18.944L255.3 20.232L254.418 18.79L257.47 16.76H259.234V26H257.302V18.944ZM265.43 26.168C264.301 26.168 263.442 25.7573 262.854 24.936C262.275 24.1053 261.986 22.8873 261.986 21.282C261.986 19.7047 262.313 18.5287 262.966 17.754C263.619 16.9793 264.576 16.592 265.836 16.592C266.583 16.592 267.362 16.6947 268.174 16.9L268.608 16.998L268.44 18.482C267.488 18.342 266.662 18.272 265.962 18.272C264.637 18.272 263.974 18.9907 263.974 20.428L264.268 20.344C264.865 20.1667 265.355 20.078 265.738 20.078C266.802 20.078 267.595 20.3207 268.118 20.806C268.65 21.2913 268.916 22.0427 268.916 23.06C268.916 24.0773 268.617 24.852 268.02 25.384C267.432 25.9067 266.569 26.168 265.43 26.168ZM265.528 24.488C265.976 24.488 266.321 24.3667 266.564 24.124C266.807 23.872 266.928 23.522 266.928 23.074C266.928 22.1967 266.475 21.758 265.57 21.758C265.15 21.758 264.693 21.8373 264.198 21.996L263.96 22.066C263.96 23.6807 264.483 24.488 265.528 24.488ZM273.834 19H275.696V19.392C276.042 19.196 276.34 19.056 276.592 18.972C276.854 18.8787 277.124 18.832 277.404 18.832C277.731 18.832 278.044 18.888 278.342 19C278.65 19.1027 278.902 19.266 279.098 19.49C279.537 19.266 279.948 19.1027 280.33 19C280.722 18.888 281.119 18.832 281.52 18.832C282.388 18.832 283.004 19.098 283.368 19.63C283.732 20.162 283.914 21.0207 283.914 22.206V26H282.038V22.262C282.038 21.6367 281.968 21.1887 281.828 20.918C281.688 20.6473 281.427 20.512 281.044 20.512C280.774 20.512 280.414 20.5773 279.966 20.708L279.756 20.778C279.794 21.4033 279.812 21.9353 279.812 22.374V26H277.936V22.402C277.936 21.898 277.908 21.5153 277.852 21.254C277.806 20.9927 277.708 20.806 277.558 20.694C277.418 20.5727 277.204 20.512 276.914 20.512C276.616 20.512 276.27 20.5773 275.878 20.708L275.71 20.764V26H273.834V19ZM285.858 19H287.734V26H285.858V19ZM285.858 16.214H287.734V18.104H285.858V16.214ZM289.748 19H291.61V19.392C291.964 19.1867 292.277 19.042 292.548 18.958C292.828 18.874 293.126 18.832 293.444 18.832C294.302 18.832 294.914 19.1073 295.278 19.658C295.642 20.2087 295.824 21.058 295.824 22.206V26H293.948V22.262C293.948 21.618 293.868 21.1653 293.71 20.904C293.56 20.6427 293.271 20.512 292.842 20.512C292.534 20.512 292.184 20.5773 291.792 20.708L291.624 20.764V26H289.748V19Z" fill="#007D17"/>
<path d="M258.456 38.132C256.472 38.132 255.48 37.416 255.48 35.984C255.48 35.456 255.572 35.044 255.756 34.748C255.948 34.452 256.272 34.164 256.728 33.884C256.32 33.644 256.032 33.388 255.864 33.116C255.696 32.844 255.612 32.48 255.612 32.024C255.612 31.352 255.864 30.836 256.368 30.476C256.864 30.124 257.556 29.948 258.444 29.948C259.332 29.948 260.032 30.132 260.544 30.5C261.064 30.86 261.324 31.372 261.324 32.036C261.324 32.516 261.24 32.884 261.072 33.14C260.912 33.388 260.604 33.636 260.148 33.884C260.612 34.132 260.944 34.4 261.144 34.688C261.344 34.976 261.444 35.364 261.444 35.852C261.444 36.612 261.188 37.184 260.676 37.568C260.172 37.944 259.432 38.132 258.456 38.132ZM259.032 33.44C259.4 33.296 259.668 33.128 259.836 32.936C260.012 32.736 260.1 32.488 260.1 32.192C260.1 31.384 259.556 30.98 258.468 30.98C257.38 30.98 256.836 31.384 256.836 32.192C256.836 32.488 256.916 32.736 257.076 32.936C257.236 33.128 257.488 33.296 257.832 33.44H259.032ZM258.468 37.088C259.636 37.088 260.22 36.628 260.22 35.708C260.22 35.364 260.124 35.1 259.932 34.916C259.748 34.724 259.448 34.56 259.032 34.424H257.832C257.448 34.544 257.164 34.708 256.98 34.916C256.796 35.124 256.704 35.404 256.704 35.756C256.704 36.644 257.292 37.088 258.468 37.088ZM265.423 38.12C264.415 38.12 263.671 37.804 263.191 37.172C262.711 36.532 262.471 35.484 262.471 34.028C262.471 32.572 262.711 31.528 263.191 30.896C263.679 30.256 264.423 29.936 265.423 29.936C266.423 29.936 267.163 30.256 267.643 30.896C268.123 31.528 268.363 32.572 268.363 34.028C268.363 35.484 268.123 36.532 267.643 37.172C267.163 37.804 266.423 38.12 265.423 38.12ZM265.423 37.112C265.839 37.112 266.175 37.016 266.431 36.824C266.687 36.624 266.875 36.3 266.995 35.852C267.115 35.404 267.175 34.796 267.175 34.028C267.175 33.26 267.115 32.656 266.995 32.216C266.875 31.768 266.687 31.448 266.431 31.256C266.175 31.056 265.839 30.956 265.423 30.956C265.007 30.956 264.671 31.056 264.415 31.256C264.159 31.448 263.971 31.768 263.851 32.216C263.731 32.656 263.671 33.26 263.671 34.028C263.671 34.796 263.731 35.404 263.851 35.852C263.971 36.3 264.159 36.624 264.415 36.824C264.671 37.016 265.007 37.112 265.423 37.112ZM272.378 38.12C271.37 38.12 270.626 37.804 270.146 37.172C269.666 36.532 269.426 35.484 269.426 34.028C269.426 32.572 269.666 31.528 270.146 30.896C270.634 30.256 271.378 29.936 272.378 29.936C273.378 29.936 274.118 30.256 274.598 30.896C275.078 31.528 275.318 32.572 275.318 34.028C275.318 35.484 275.078 36.532 274.598 37.172C274.118 37.804 273.378 38.12 272.378 38.12ZM272.378 37.112C272.794 37.112 273.13 37.016 273.386 36.824C273.642 36.624 273.83 36.3 273.95 35.852C274.07 35.404 274.13 34.796 274.13 34.028C274.13 33.26 274.07 32.656 273.95 32.216C273.83 31.768 273.642 31.448 273.386 31.256C273.13 31.056 272.794 30.956 272.378 30.956C271.962 30.956 271.626 31.056 271.37 31.256C271.114 31.448 270.926 31.768 270.806 32.216C270.686 32.656 270.626 33.26 270.626 34.028C270.626 34.796 270.686 35.404 270.806 35.852C270.926 36.3 271.114 36.624 271.37 36.824C271.626 37.016 271.962 37.112 272.378 37.112ZM279.677 32H280.781V32.396C281.085 32.22 281.373 32.088 281.645 32C281.917 31.912 282.197 31.868 282.485 31.868C282.797 31.868 283.085 31.92 283.349 32.024C283.613 32.12 283.821 32.268 283.973 32.468C284.293 32.292 284.641 32.148 285.017 32.036C285.401 31.924 285.789 31.868 286.181 31.868C286.677 31.868 287.065 31.968 287.345 32.168C287.625 32.368 287.825 32.68 287.945 33.104C288.065 33.528 288.125 34.096 288.125 34.808V38H287.009V34.832C287.009 34.328 286.977 33.94 286.913 33.668C286.857 33.388 286.749 33.188 286.589 33.068C286.437 32.94 286.209 32.876 285.905 32.876C285.681 32.876 285.449 32.904 285.209 32.96C284.969 33.008 284.757 33.072 284.573 33.152L284.357 33.248C284.445 33.592 284.489 34.136 284.489 34.88V38H283.361V34.904C283.361 34.368 283.333 33.96 283.277 33.68C283.221 33.392 283.113 33.188 282.953 33.068C282.801 32.94 282.573 32.876 282.269 32.876C282.045 32.876 281.813 32.904 281.573 32.96C281.341 33.016 281.145 33.08 280.985 33.152L280.793 33.248V38H279.677V32Z" fill="black"/>
<path d="M2.5 20.4999H114.5H135.5L143.5 17.9999C143.667 12.6666 147.7 1.99991 162.5 1.99991C177.3 1.99991 216.333 1.99991 234 1.99991C236.5 4.33324 248.5 1.99991 248.5 1.99991H357.5" stroke="white" stroke-width="4" stroke-linecap="round" stroke-linejoin="round" stroke-dasharray="4 8"/>
</svg>
