<svg width="26" height="32" viewBox="0 0 26 32" fill="none" xmlns="http://www.w3.org/2000/svg">
<path d="M12.975 0.51281L13 0.514061L13.025 0.51281C14.5445 0.436743 16.0629 0.700052 17.4835 1.28685C18.9041 1.87369 20.1968 2.77168 21.2777 3.92536C22.3587 5.07913 23.2038 6.46304 23.7573 7.98937C24.3107 9.51573 24.5598 11.1496 24.4879 12.7861L24.4874 12.7971V12.8081C24.4874 14.7056 23.7793 16.619 22.864 18.2759C21.9512 19.9284 20.8538 21.2867 20.1273 22.0622C19.3567 22.8846 17.4651 25.3088 15.7873 27.4976C14.9435 28.5983 14.1468 29.6488 13.561 30.4241C13.3415 30.7146 13.1517 30.9664 13 31.1679C12.8483 30.9664 12.6585 30.7146 12.439 30.4241C11.8532 29.6488 11.0565 28.5983 10.2127 27.4976C8.53486 25.3088 6.64327 22.8846 5.87274 22.0622C5.14622 21.2867 4.04885 19.9284 3.13598 18.2759C2.22066 16.619 1.51259 14.7056 1.51259 12.8081V12.7971L1.51211 12.7861C1.4402 11.1496 1.68928 9.51573 2.24274 7.98937C2.79619 6.46304 3.64132 5.07913 4.7223 3.92536C5.8032 2.77168 7.09587 1.87369 8.51652 1.28685C9.93706 0.700052 11.4555 0.436743 12.975 0.51281Z" fill="#0087CF" stroke="white"/>
<circle cx="13" cy="12" r="4" fill="white"/>
</svg>
