<svg width="17" height="21" viewBox="0 0 17 21" fill="none" xmlns="http://www.w3.org/2000/svg">
<g clip-path="url(#clip0_386_2)">
<path d="M8.4634 0.757673L8.49996 0.759458L8.53653 0.757673C9.46999 0.712113 10.403 0.869797 11.2761 1.22145C12.1493 1.57315 12.9446 2.1116 13.6101 2.80415C14.2757 3.49677 14.7966 4.32819 15.1379 5.246C15.4793 6.16385 15.633 7.14673 15.5886 8.13137L15.5879 8.14825V8.16514C15.5879 9.26884 15.1629 10.4121 14.5831 11.4353C14.0074 12.4514 13.3133 13.289 12.8579 13.7629C12.3355 14.3065 11.0824 15.8735 9.99232 17.2601C9.4398 17.9628 8.91818 18.6334 8.53478 19.1281C8.52305 19.1433 8.51144 19.1582 8.49996 19.1731C8.48849 19.1582 8.47688 19.1433 8.46514 19.1281C8.08175 18.6334 7.56013 17.9628 7.00761 17.2601C5.91748 15.8735 4.66443 14.3065 4.14205 13.7629C3.68664 13.289 2.99253 12.4514 2.41679 11.4353C1.83704 10.4121 1.41204 9.26884 1.41204 8.16514V8.14825L1.41128 8.13137C1.3669 7.14673 1.52064 6.16385 1.86199 5.246C2.20332 4.32819 2.72427 3.49677 3.38984 2.80415C4.05533 2.1116 4.85061 1.57315 5.72384 1.22145C6.59697 0.869797 7.52993 0.712113 8.4634 0.757673Z" stroke="#0288D1" stroke-width="1.5"/>
<circle cx="8.5" cy="7.5" r="2.5" fill="#0288D1"/>
</g>
<defs>
<clipPath id="clip0_386_2">
<rect width="17" height="20.4" fill="white"/>
</clipPath>
</defs>
</svg>
