<svg width="99" height="58" viewBox="0 0 99 58" fill="none" xmlns="http://www.w3.org/2000/svg">
<path d="M96.188 2.5L96.188 10.4504L96.188 17.8972V25.5L87 25.5L80 25.5L80 55.5" stroke="white" stroke-width="4" stroke-linecap="round" stroke-linejoin="round" stroke-dasharray="4 8"/>
<path d="M70.8762 42.1979L70.8762 52.7589L1 52.7589L1 19L70.8762 19L70.8762 29.1999L77.3864 35.6989L70.8762 42.1979Z" fill="white" stroke="#333333"/>
<path d="M16.8741 30.2529C16.8741 30.6918 16.6999 31.1128 16.3899 31.4231C16.0798 31.7334 15.6592 31.9078 15.2207 31.9078C14.7822 31.9078 14.3617 31.7334 14.0516 31.4231C13.7415 31.1128 13.5674 30.6918 13.5674 30.2529C13.5674 29.8141 13.7415 29.3931 14.0516 29.0828C14.3617 28.7724 14.7822 28.5981 15.2207 28.5981C15.6592 28.5981 16.0798 28.7724 16.3899 29.0828C16.6999 29.3931 16.8741 29.8141 16.8741 30.2529ZM14.5772 38.6914L16.7237 40.8113C16.806 40.8926 16.8703 40.9902 16.9126 41.098L18.0571 44.0167C18.1373 44.221 18.133 44.4488 18.0454 44.65C17.9577 44.8512 17.7937 45.0093 17.5896 45.0895C17.3855 45.1697 17.1579 45.1654 16.9569 45.0777C16.7559 44.9899 16.598 44.8259 16.5178 44.6216L15.4373 41.8658L11.747 38.221C11.6578 38.133 11.5898 38.0259 11.548 37.9077C11.5063 37.7895 11.4919 37.6634 11.506 37.5388L11.8015 34.9242C11.0889 35.6333 10.5392 36.6299 10.118 37.9509C10.0865 38.0562 10.0343 38.1541 9.9646 38.2391C9.89486 38.324 9.80891 38.3941 9.71178 38.4454C9.61465 38.4967 9.50828 38.5281 9.39889 38.5378C9.28949 38.5475 9.17927 38.5353 9.07464 38.5019C8.97002 38.4684 8.8731 38.4145 8.78954 38.3432C8.70598 38.2718 8.63746 38.1846 8.58798 38.0864C8.53849 37.9883 8.50904 37.8813 8.50134 37.7716C8.49364 37.662 8.50784 37.5519 8.54312 37.4478C9.31608 35.0235 10.5995 33.2089 12.7531 32.3769L12.7626 32.3732C13.3111 32.1693 13.8815 32.1858 14.3899 32.4485C14.8781 32.7013 15.2257 33.1378 15.4535 33.6268L15.7213 34.206C15.923 34.6437 16.0925 35.0127 16.2558 35.3362C16.4843 35.7913 16.6683 36.0933 16.8501 36.3051C17.0188 36.5012 17.1862 36.622 17.3999 36.7056C17.6297 36.7954 17.9517 36.8574 18.449 36.8723C18.5582 36.8745 18.6659 36.8984 18.7659 36.9425C18.8659 36.9866 18.9561 37.0501 19.0314 37.1293C19.1067 37.2086 19.1656 37.302 19.2046 37.4041C19.2436 37.5062 19.262 37.6151 19.2587 37.7244C19.2555 37.8337 19.2306 37.9413 19.1855 38.0409C19.1404 38.1405 19.0761 38.2302 18.9962 38.3048C18.9163 38.3794 18.8224 38.4373 18.7199 38.4754C18.6175 38.5134 18.5085 38.5307 18.3994 38.5264C17.8021 38.5086 17.2718 38.432 16.7985 38.2471C16.3095 38.056 15.9238 37.7651 15.5956 37.3824C15.389 37.1417 15.2071 36.8665 15.0376 36.5674L14.5772 38.6914Z" fill="black"/>
<path d="M11.506 39.4456L12.8763 40.7612L12.2455 42.8906C12.1967 43.0553 12.0979 43.2008 11.9628 43.3068L9.84065 44.9712C9.75516 45.0382 9.65732 45.0877 9.55271 45.1168C9.4481 45.146 9.33877 45.1543 9.23098 45.1411C9.12318 45.128 9.01902 45.0938 8.92444 45.0404C8.82987 44.987 8.74673 44.9154 8.67977 44.8299C8.61281 44.7443 8.56335 44.6464 8.53421 44.5417C8.50507 44.437 8.49681 44.3275 8.50992 44.2197C8.52303 44.1118 8.55724 44.0075 8.6106 43.9128C8.66397 43.8182 8.73543 43.735 8.82093 43.668L10.7355 42.167L11.3122 40.2184L11.506 39.4456Z" fill="black"/>
<path d="M28.5439 34.9716V33.4316H24.3439V32.0316L26.4439 25.7316H28.5999L26.2619 31.8216H28.5439L28.6559 29.4416L30.4479 29.4136V31.8216H31.3019V33.4316H30.4479V34.9716H28.5439ZM36.0541 34.9716V27.9436H37.9161V28.3916C38.1307 28.261 38.4201 28.1303 38.7841 27.9996C39.1481 27.8596 39.4934 27.7896 39.8201 27.7896C40.2494 27.7896 40.5994 27.8503 40.8701 27.9716C41.1407 28.0836 41.3647 28.2516 41.5421 28.4756C41.7101 28.373 41.9201 28.2703 42.1721 28.1676C42.4241 28.065 42.6994 27.9763 42.9981 27.9016C43.2967 27.827 43.5861 27.7896 43.8661 27.7896C44.5567 27.7896 45.0841 27.911 45.4481 28.1536C45.8121 28.3963 46.0641 28.779 46.2041 29.3016C46.3441 29.815 46.4141 30.487 46.4141 31.3176V34.9716H44.5521V31.4856C44.5521 31.0003 44.5241 30.6083 44.4681 30.3096C44.4214 30.0016 44.3187 29.7776 44.1601 29.6376C44.0107 29.4976 43.7821 29.4276 43.4741 29.4276C43.2034 29.4276 42.9374 29.465 42.6761 29.5396C42.4147 29.6143 42.2094 29.689 42.0601 29.7636C42.1067 29.9596 42.1394 30.2116 42.1581 30.5196C42.1861 30.8276 42.2001 31.1496 42.2001 31.4856V34.9716H40.3381V31.5136C40.3381 31.019 40.3101 30.6176 40.2541 30.3096C40.2074 30.0016 40.1047 29.7776 39.9461 29.6376C39.7874 29.4976 39.5587 29.4276 39.2601 29.4276C38.9987 29.4276 38.7421 29.465 38.4901 29.5396C38.2474 29.6143 38.0561 29.689 37.9161 29.7636V34.9716H36.0541ZM48.1739 34.9716V27.9436H50.0359V34.9716H48.1739ZM48.1739 26.8236V25.2276H50.0499V26.8236H48.1739ZM51.8719 34.9716V27.9436H53.7339V28.3916C53.8832 28.2983 54.0652 28.2096 54.2799 28.1256C54.4945 28.0323 54.7185 27.953 54.9519 27.8876C55.1945 27.8223 55.4279 27.7896 55.6519 27.7896C56.3052 27.7896 56.8092 27.9063 57.1639 28.1396C57.5279 28.3636 57.7845 28.737 57.9339 29.2596C58.0832 29.773 58.1579 30.4636 58.1579 31.3316V34.9716H56.2819V31.4296C56.2819 30.9443 56.2539 30.557 56.1979 30.2676C56.1419 29.969 56.0345 29.7543 55.8759 29.6236C55.7172 29.493 55.4839 29.4276 55.1759 29.4276C55.0079 29.4276 54.8305 29.4463 54.6439 29.4836C54.4665 29.5116 54.2939 29.5536 54.1259 29.6096C53.9672 29.6656 53.8365 29.7216 53.7339 29.7776V34.9716H51.8719Z" fill="#007D17"/>
<path d="M29.5017 46.8723V40.2123L27.5217 41.4843L27.0417 40.6323L29.5977 38.9523H30.6417V46.8723H29.5017ZM36.1448 46.9923C35.6088 46.9923 35.1128 46.9283 34.6568 46.8003C34.2088 46.6723 33.8448 46.4523 33.5648 46.1403C33.2928 45.8283 33.1568 45.3963 33.1568 44.8443C33.1568 44.4443 33.2128 44.1163 33.3248 43.8603C33.4368 43.6043 33.5888 43.3923 33.7808 43.2243C33.9808 43.0563 34.2128 42.8963 34.4768 42.7443C34.0768 42.5363 33.7768 42.2963 33.5768 42.0243C33.3848 41.7523 33.2888 41.3723 33.2888 40.8843C33.2888 40.4123 33.4048 40.0243 33.6368 39.7203C33.8768 39.4163 34.2088 39.1923 34.6328 39.0483C35.0648 38.8963 35.5688 38.8203 36.1448 38.8203C36.7128 38.8203 37.2128 38.8963 37.6448 39.0483C38.0768 39.1923 38.4168 39.4163 38.6648 39.7203C38.9128 40.0243 39.0368 40.4163 39.0368 40.8963C39.0368 41.4083 38.9368 41.7923 38.7368 42.0483C38.5368 42.3043 38.2128 42.5363 37.7648 42.7443C38.0448 42.8723 38.2888 43.0203 38.4968 43.1883C38.7128 43.3563 38.8768 43.5603 38.9888 43.8003C39.1008 44.0403 39.1568 44.3483 39.1568 44.7243C39.1568 45.3163 39.0168 45.7763 38.7368 46.1043C38.4648 46.4323 38.1008 46.6643 37.6448 46.8003C37.1968 46.9283 36.6968 46.9923 36.1448 46.9923ZM36.1448 45.9963C36.4968 45.9963 36.8088 45.9563 37.0808 45.8763C37.3528 45.7963 37.5648 45.6523 37.7168 45.4443C37.8768 45.2363 37.9568 44.9603 37.9568 44.6163C37.9568 44.3283 37.9008 44.1003 37.7888 43.9323C37.6768 43.7643 37.5248 43.6283 37.3328 43.5243C37.1488 43.4203 36.9368 43.3323 36.6968 43.2603H35.5328C35.1648 43.3643 34.8768 43.5243 34.6688 43.7403C34.4608 43.9563 34.3568 44.2643 34.3568 44.6643C34.3568 44.9923 34.4328 45.2563 34.5848 45.4563C34.7448 45.6563 34.9568 45.7963 35.2208 45.8763C35.4928 45.9563 35.8008 45.9963 36.1448 45.9963ZM35.5328 42.3123H36.6968C37.0568 42.1843 37.3368 42.0243 37.5368 41.8323C37.7368 41.6403 37.8368 41.3763 37.8368 41.0403C37.8368 40.6003 37.6888 40.2883 37.3928 40.1043C37.0968 39.9123 36.6808 39.8163 36.1448 39.8163C35.6328 39.8163 35.2288 39.9083 34.9328 40.0923C34.6368 40.2763 34.4888 40.5883 34.4888 41.0283C34.4888 41.3643 34.5768 41.6323 34.7528 41.8323C34.9288 42.0323 35.1888 42.1923 35.5328 42.3123ZM40.5439 46.8723V45.9243L42.6919 43.6803C43.0279 43.3363 43.3159 43.0283 43.5559 42.7563C43.8039 42.4763 43.9919 42.2083 44.1199 41.9523C44.2479 41.6883 44.3119 41.4123 44.3119 41.1243C44.3119 40.6363 44.1759 40.3003 43.9039 40.1163C43.6399 39.9323 43.2359 39.8403 42.6919 39.8403C42.4839 39.8403 42.2519 39.8563 41.9959 39.8883C41.7479 39.9123 41.5079 39.9443 41.2759 39.9843C41.0439 40.0163 40.8439 40.0523 40.6759 40.0923L40.6039 39.1683C40.7719 39.1123 40.9799 39.0603 41.2279 39.0123C41.4839 38.9643 41.7599 38.9243 42.0559 38.8923C42.3519 38.8523 42.6439 38.8323 42.9319 38.8323C43.7799 38.8323 44.4159 39.0043 44.8399 39.3483C45.2719 39.6843 45.4879 40.2283 45.4879 40.9803C45.4879 41.3803 45.4279 41.7363 45.3079 42.0483C45.1879 42.3603 45.0039 42.6683 44.7559 42.9723C44.5159 43.2683 44.2039 43.5963 43.8199 43.9563L41.8759 45.8883H45.6559V46.8723H40.5439ZM50.3641 46.8723V40.8603H51.4801V41.2803C51.6641 41.1683 51.9161 41.0523 52.2361 40.9323C52.5641 40.8043 52.8801 40.7403 53.1841 40.7403C53.5761 40.7403 53.8921 40.7883 54.1321 40.8843C54.3721 40.9803 54.5681 41.1363 54.7201 41.3523C54.8721 41.2643 55.0601 41.1723 55.2841 41.0763C55.5161 40.9803 55.7641 40.9003 56.0281 40.8363C56.2921 40.7723 56.5521 40.7403 56.8081 40.7403C57.3601 40.7403 57.7841 40.8363 58.0801 41.0283C58.3841 41.2203 58.5921 41.5363 58.7041 41.9763C58.8161 42.4083 58.8721 42.9843 58.8721 43.7043V46.8723H57.7681V43.7763C57.7681 43.2803 57.7401 42.8843 57.6841 42.5883C57.6281 42.2923 57.5161 42.0763 57.3481 41.9403C57.1881 41.8043 56.9401 41.7363 56.6041 41.7363C56.3081 41.7363 56.0161 41.7803 55.7281 41.8683C55.4481 41.9563 55.2281 42.0443 55.0681 42.1323C55.1241 42.3243 55.1601 42.5723 55.1761 42.8763C55.2001 43.1723 55.2121 43.4763 55.2121 43.7883V46.8723H54.0961V43.8123C54.0961 43.3003 54.0681 42.8963 54.0121 42.6003C53.9641 42.2963 53.8561 42.0763 53.6881 41.9403C53.5201 41.8043 53.2721 41.7363 52.9441 41.7363C52.6641 41.7363 52.3841 41.7803 52.1041 41.8683C51.8321 41.9563 51.6241 42.0443 51.4801 42.1323V46.8723H50.3641Z" fill="black"/>
</svg>
